<svg width="20" height="20" viewBox="0 0 20 20" fill="none" xmlns="http://www.w3.org/2000/svg">
<g clip-path="url(#clip0)">
<path d="M10 20C15.5228 20 20 15.5228 20 10C20 4.47715 15.5228 0 10 0C4.47715 0 0 4.47715 0 10C0 15.5228 4.47715 20 10 20Z" fill="#EAB14D"/>
<path d="M9.99988 0C9.82137 0 9.64398 0.00488281 9.46777 0.0141016C14.7432 0.290742 18.9357 4.65566 18.9357 10C18.9357 15.3443 14.7432 19.7093 9.46777 19.9859C9.64398 19.9951 9.82137 20 9.99988 20C15.5227 20 19.9999 15.5229 19.9999 10C19.9999 4.47715 15.5227 0 9.99988 0Z" fill="#E49542"/>
<path d="M10.0005 17.7925C14.3041 17.7925 17.7929 14.3037 17.7929 10C17.7929 5.69635 14.3041 2.20755 10.0005 2.20755C5.69681 2.20755 2.20801 5.69635 2.20801 10C2.20801 14.3037 5.69681 17.7925 10.0005 17.7925Z" fill="#F4FBFF"/>
<path d="M10.0002 2.20755C9.78437 2.20755 9.57074 2.21673 9.35938 2.23392C13.3632 2.55985 16.5111 5.91216 16.5111 10C16.5111 14.0879 13.3632 17.4401 9.35938 17.7661C9.57074 17.7833 9.78437 17.7925 10.0002 17.7925C14.3039 17.7925 17.7927 14.3037 17.7927 10.0001C17.7927 5.69642 14.3039 2.20755 10.0002 2.20755Z" fill="#DAF1F4"/>
<path d="M9.99905 4.60589C9.83238 4.60589 9.69727 4.47077 9.69727 4.30409V3.86112C9.69727 3.69444 9.83238 3.55933 9.99905 3.55933C10.1657 3.55933 10.3009 3.69444 10.3009 3.86112V4.30409C10.3009 4.47077 10.1657 4.60589 9.99905 4.60589Z" fill="#2B4D66"/>
<path d="M14.0098 6.28101C13.9326 6.28101 13.8553 6.25152 13.7964 6.19261C13.6785 6.07472 13.6785 5.88366 13.7964 5.76577L14.1097 5.45257C14.2275 5.33468 14.4186 5.33472 14.5365 5.45257C14.6544 5.57046 14.6544 5.76152 14.5365 5.87941L14.2232 6.19265C14.1643 6.25152 14.0871 6.28101 14.0098 6.28101Z" fill="#2B4D66"/>
<path d="M16.1051 10.3018H15.6621C15.4954 10.3018 15.3604 10.1667 15.3604 10C15.3604 9.83333 15.4955 9.69821 15.6621 9.69821H16.1051C16.2718 9.69821 16.4069 9.83333 16.4069 10C16.4069 10.1667 16.2718 10.3018 16.1051 10.3018Z" fill="#2B4D66"/>
<path d="M14.3006 14.6263C14.2233 14.6263 14.1461 14.5968 14.0871 14.5379L13.7739 14.2247C13.6561 14.1068 13.6561 13.9157 13.7739 13.7978C13.8918 13.68 14.0829 13.68 14.2008 13.7978L14.514 14.111C14.6319 14.2289 14.6319 14.42 14.514 14.5379C14.4551 14.5968 14.3778 14.6263 14.3006 14.6263Z" fill="#2B4D66"/>
<path d="M9.96586 16.4079C9.79918 16.4079 9.66406 16.2728 9.66406 16.1061V15.6632C9.66406 15.4964 9.79918 15.3614 9.96586 15.3614C10.1325 15.3614 10.2677 15.4965 10.2677 15.6632V16.1061C10.2677 16.2728 10.1325 16.4079 9.96586 16.4079Z" fill="#2B4D66"/>
<path d="M5.64262 14.603C5.56539 14.603 5.48813 14.5735 5.42922 14.5146C5.31133 14.3967 5.31137 14.2056 5.42922 14.0877L5.74246 13.7745C5.86035 13.6567 6.05141 13.6567 6.1693 13.7746C6.28715 13.8924 6.28715 14.0835 6.16926 14.2014L5.85602 14.5146C5.79711 14.5736 5.71985 14.603 5.64262 14.603Z" fill="#2B4D66"/>
<path d="M4.30336 10.269H3.86039C3.69371 10.269 3.55859 10.1339 3.55859 9.96718C3.55859 9.8005 3.69371 9.66537 3.86039 9.66537H4.30336C4.47004 9.66537 4.60516 9.8005 4.60516 9.96718C4.6052 10.1339 4.47004 10.269 4.30336 10.269Z" fill="#2B4D66"/>
<path d="M5.97833 6.25776C5.9011 6.25776 5.82388 6.22831 5.76493 6.16936L5.45169 5.85616C5.33384 5.73827 5.3338 5.54721 5.45165 5.42932C5.56954 5.31147 5.7606 5.31143 5.87849 5.42928L6.19173 5.74252C6.30958 5.86038 6.30962 6.05147 6.19177 6.16936C6.13278 6.22827 6.05556 6.25776 5.97833 6.25776Z" fill="#2B4D66"/>
<path d="M9.99986 10.3018H7.43656C7.26988 10.3018 7.13477 10.1667 7.13477 9.99999C7.13477 9.83331 7.26988 9.69819 7.43656 9.69819H9.69802V5.85847C9.69802 5.69179 9.83314 5.55667 9.99982 5.55667C10.1665 5.55667 10.3016 5.69179 10.3016 5.85847V9.99999C10.3017 10.1667 10.1665 10.3018 9.99986 10.3018Z" fill="#2B4D66"/>
<path d="M13.0964 11.8942C13.0499 11.8942 13.0028 11.8834 12.9587 11.8607L9.8621 10.2684C9.71385 10.1922 9.6555 10.0102 9.73171 9.86196C9.80792 9.71372 9.98987 9.65532 10.1382 9.73157L13.2347 11.3239C13.3829 11.4001 13.4413 11.5821 13.3651 11.7303C13.3115 11.8344 13.2059 11.8942 13.0964 11.8942Z" fill="#DA4A54"/>
<path d="M9.99987 10.8055C10.4448 10.8055 10.8054 10.4449 10.8054 10C10.8054 9.55511 10.4448 9.19446 9.99987 9.19446C9.55499 9.19446 9.19434 9.55511 9.19434 10C9.19434 10.4449 9.55499 10.8055 9.99987 10.8055Z" fill="#365E7D"/>
</g>
<defs>
<clipPath id="clip0">
<rect width="20" height="20" fill="white"/>
</clipPath>
</defs>
</svg>
