<svg width="20" height="20" viewBox="0 0 20 20" fill="none" xmlns="http://www.w3.org/2000/svg">
<g clip-path="url(#clip0)">
<path d="M16.7554 13.9875V16.2342C16.7554 16.7265 16.3927 17.1894 15.75 17.5963C15.6586 17.6523 15.5613 17.7113 15.4552 17.7644C15.4552 17.7644 15.4523 17.7644 15.4523 17.7673C15.3609 17.8175 15.2636 17.8647 15.1604 17.9147C14.8154 18.0769 14.4174 18.2273 13.981 18.3599C13.8837 18.3895 13.7864 18.4189 13.6862 18.4484H13.6833C13.5889 18.4749 13.4916 18.5014 13.3914 18.528C13.0199 18.6223 12.6278 18.7078 12.2121 18.7786C12.1148 18.7963 12.0175 18.814 11.9172 18.8287H11.9143C11.817 18.8435 11.7227 18.8611 11.6224 18.873C11.2421 18.9289 10.85 18.9732 10.4431 19.0086C10.3458 19.0174 10.2485 19.0263 10.1483 19.0322H10.1453C10.048 19.041 9.95368 19.0469 9.85345 19.0528C9.47018 19.0764 9.07509 19.0911 8.6741 19.0941C8.57681 19.097 8.47952 19.097 8.37928 19.097H8.37634C8.2761 19.097 8.18176 19.097 8.08447 19.0941C7.68348 19.0911 7.28843 19.0764 6.90512 19.0528C6.80489 19.0469 6.7076 19.0411 6.61031 19.0322H6.60736C6.50712 19.0263 6.41278 19.0174 6.31549 19.0086C5.90861 18.9732 5.5165 18.9289 5.13614 18.873C5.03591 18.8612 4.93862 18.8435 4.84133 18.8287H4.83838C4.73815 18.814 4.6438 18.7963 4.54651 18.7786C4.13079 18.7078 3.73869 18.6223 3.36717 18.528C3.26693 18.5014 3.16669 18.4749 3.07235 18.4484H3.0694C2.96917 18.4189 2.87482 18.3895 2.77754 18.3599C2.34118 18.2273 1.94314 18.0769 1.59819 17.9147C1.495 17.8676 1.39771 17.8175 1.30337 17.7644C1.30337 17.7644 1.30043 17.7644 1.30043 17.7614C1.19724 17.7113 1.09995 17.6553 1.00856 17.5964C0.365583 17.1924 0 16.7265 0 16.2342V13.9875H16.7554Z" fill="#F6C358"/>
<path d="M16.7554 13.9876C16.7554 14.48 16.3927 14.9428 15.75 15.3438C15.6557 15.4057 15.5584 15.4647 15.4522 15.5178C15.3608 15.5709 15.2635 15.618 15.1603 15.6682C14.8154 15.8303 14.4173 15.9778 13.981 16.1134C13.8837 16.1428 13.7864 16.1723 13.6862 16.2018H13.6832C13.5889 16.2283 13.4916 16.2549 13.3914 16.2814C13.0199 16.3758 12.6277 16.4613 12.212 16.532C12.1147 16.5497 12.0174 16.5674 11.9172 16.5821H11.9143C11.817 16.5969 11.7226 16.6146 11.6224 16.6264C11.2421 16.6824 10.8499 16.7266 10.443 16.762C10.3457 16.7708 10.2484 16.7797 10.1482 16.7856H10.1453C10.048 16.7944 9.95364 16.8003 9.85341 16.8062C9.47014 16.8298 9.07505 16.8446 8.67406 16.8475C8.57677 16.8505 8.47948 16.8505 8.37924 16.8505H8.3763C8.27606 16.8505 8.18172 16.8505 8.08443 16.8475C7.68344 16.8446 7.28839 16.8298 6.90508 16.8062C6.80484 16.8003 6.70755 16.7944 6.61026 16.7856H6.60732C6.50708 16.7797 6.41274 16.7708 6.31545 16.762C5.90857 16.7266 5.51646 16.6824 5.1361 16.6264C5.03587 16.6146 4.93858 16.5969 4.84129 16.5821H4.83834C4.7381 16.5674 4.64376 16.5497 4.54647 16.532C4.13075 16.4613 3.73864 16.3758 3.36712 16.2814C3.26689 16.2549 3.16665 16.2283 3.07231 16.2018H3.06936C2.96912 16.1723 2.87478 16.1428 2.77749 16.1134C2.34114 15.9807 1.9431 15.8303 1.59814 15.6682C1.49496 15.621 1.39767 15.5709 1.30333 15.5178C1.30333 15.5178 1.30038 15.5178 1.30038 15.5149C1.1972 15.4647 1.09991 15.4087 1.00851 15.3498C0.365583 14.9458 0 14.48 0 13.9876C0 12.4073 3.75321 11.1247 8.37916 11.1247C13.0051 11.1247 16.7554 12.4073 16.7554 13.9876Z" fill="#FCD462"/>
<path d="M8.35324 16.0504C8.26979 16.0504 8.19048 16.0503 8.10869 16.0478C7.72286 16.0448 7.34071 16.0314 6.95386 16.0077C6.8596 16.0021 6.77051 15.9968 6.68146 15.9888L6.6458 15.9856H6.63188C6.55295 15.9805 6.4777 15.9735 6.40061 15.9665C5.97601 15.9295 5.60568 15.8869 5.25232 15.835C5.17096 15.8251 5.11441 15.8157 5.05829 15.8066L4.89929 15.7821C4.84005 15.7724 4.68951 15.7448 4.68951 15.7448C4.30944 15.6803 3.94408 15.6027 3.56346 15.5061C3.47531 15.4826 3.37922 15.4573 3.28859 15.4317L3.00876 15.3476C2.67777 15.2469 2.37271 15.1361 2.09993 15.0174V15.0149L1.65606 14.7985L1.51256 14.7178H1.50671C1.48523 14.7049 1.46349 14.6914 1.44188 14.6775C0.965855 14.3782 0.799805 14.1196 0.799805 13.9876C0.799805 13.2604 3.67728 11.9248 8.37895 11.9248C13.0787 11.9248 15.9551 13.2603 15.9551 13.9876C15.9551 14.1192 15.7904 14.3756 15.3263 14.6651C15.2285 14.729 15.1597 14.7695 15.0939 14.8024L15.05 14.8261C14.9773 14.8684 14.8994 14.9054 14.8175 14.9453C14.5256 15.0825 14.1633 15.2188 13.7433 15.3494L13.4663 15.4317C13.3757 15.4571 13.2823 15.4826 13.1861 15.5082C12.8137 15.6025 12.4485 15.6801 12.0777 15.7433C11.9987 15.7576 11.9258 15.7709 11.8527 15.7826L11.6907 15.8076C11.6375 15.8163 11.5845 15.8254 11.5292 15.8318C11.1519 15.8869 10.7816 15.9295 10.3734 15.9651C10.2889 15.9727 10.2069 15.9802 10.1231 15.9856L10.0735 15.9889C9.98457 15.9968 9.89808 16.0022 9.80643 16.0075C9.41723 16.0315 9.03508 16.0449 8.66804 16.0475C8.56819 16.0503 8.48444 16.0505 8.39983 16.0505C8.39296 16.0504 8.3608 16.0504 8.35324 16.0504Z" fill="#F6C358"/>
<path d="M1.59744 15.67V17.9166C1.49426 17.8695 1.39697 17.8194 1.30263 17.7663C1.30263 17.7663 1.29968 17.7663 1.29968 17.7633C1.1965 17.7132 1.09921 17.6572 1.00781 17.5983V15.3516C1.09921 15.4106 1.1965 15.4666 1.29968 15.5167C1.29968 15.5197 1.30263 15.5197 1.30263 15.5197C1.39697 15.5728 1.49426 15.6229 1.59744 15.67Z" fill="#DC8744"/>
<path d="M3.366 16.2814V18.528C3.26576 18.5015 3.16553 18.4749 3.07118 18.4484H3.06824C2.968 18.4189 2.87366 18.3895 2.77637 18.36V16.1133C2.87366 16.1428 2.968 16.1723 3.06824 16.2017H3.07118C3.16553 16.2283 3.26576 16.2549 3.366 16.2814Z" fill="#DC8744"/>
<path d="M5.13553 16.6263V18.873C5.03529 18.8612 4.938 18.8435 4.84071 18.8287H4.83777C4.73753 18.814 4.64319 18.7963 4.5459 18.7786V16.532C4.64319 16.5497 4.73753 16.5673 4.83777 16.5821H4.84071C4.938 16.5968 5.03529 16.6145 5.13553 16.6263Z" fill="#DC8744"/>
<path d="M6.90408 16.8062V19.0528C6.80385 19.0469 6.70656 19.041 6.60927 19.0322H6.60632C6.50609 19.0263 6.41174 19.0174 6.31445 19.0085V16.762C6.41174 16.7708 6.50609 16.7796 6.60632 16.7855H6.60927C6.70656 16.7943 6.8038 16.8002 6.90408 16.8062Z" fill="#DC8744"/>
<path d="M8.67362 16.8474V19.094C8.57633 19.097 8.47904 19.097 8.3788 19.097H8.37585C8.27562 19.097 8.18127 19.097 8.08398 19.094V16.8474C8.18127 16.8504 8.27562 16.8504 8.37585 16.8504H8.3788C8.47904 16.8504 8.57633 16.8504 8.67362 16.8474Z" fill="#DC8744"/>
<path d="M10.4431 16.762V19.0085C10.3458 19.0174 10.2485 19.0263 10.1483 19.0322H10.1454C10.0481 19.041 9.95375 19.0469 9.85352 19.0528V16.8062C9.95375 16.8003 10.0481 16.7944 10.1454 16.7855H10.1483C10.2485 16.7796 10.3458 16.7708 10.4431 16.762Z" fill="#DC8744"/>
<path d="M12.2117 16.532V18.7786C12.1144 18.7963 12.0171 18.814 11.9169 18.8287H11.9139C11.8166 18.8435 11.7223 18.8611 11.6221 18.873V16.6263C11.7223 16.6145 11.8166 16.5969 11.9139 16.5821H11.9169C12.0171 16.5673 12.1144 16.5497 12.2117 16.532Z" fill="#DC8744"/>
<path d="M13.9803 16.1133V18.36C13.883 18.3895 13.7856 18.4189 13.6854 18.4484H13.6825C13.5882 18.4749 13.4909 18.5015 13.3906 18.528V16.2814C13.4909 16.2549 13.5882 16.2283 13.6825 16.2017H13.6854C13.7856 16.1723 13.8829 16.1428 13.9803 16.1133Z" fill="#DC8744"/>
<path d="M15.7488 15.3438V17.5963C15.6574 17.6524 15.5601 17.7113 15.454 17.7644C15.454 17.7644 15.451 17.7644 15.451 17.7673C15.3597 17.8175 15.2624 17.8647 15.1592 17.9148V15.6681C15.2624 15.618 15.3597 15.5708 15.451 15.5178C15.5572 15.4647 15.6545 15.4057 15.7488 15.3438Z" fill="#DC8744"/>
<path d="M20.0003 10.5804V12.827C20.0003 13.3193 19.6376 13.7822 18.9949 14.1891C18.9035 14.2451 18.8062 14.3041 18.7001 14.3572C18.7001 14.3572 18.6972 14.3572 18.6972 14.3601C18.6058 14.4103 18.5085 14.4574 18.4053 14.5075C18.0603 14.6697 17.6623 14.8201 17.2259 14.9527C17.1286 14.9822 17.0314 15.0117 16.9311 15.0412H16.9282C16.8338 15.0677 16.7365 15.0942 16.6363 15.1208C16.2648 15.2151 15.8727 15.3006 15.457 15.3714C15.3597 15.3891 15.2624 15.4068 15.1621 15.4215H15.1592C15.0619 15.4363 14.9676 15.4539 14.8673 15.4657C14.487 15.5217 14.0949 15.566 13.688 15.6013C13.5907 15.6102 13.4934 15.6191 13.3932 15.625H13.3902C13.2929 15.6338 13.1986 15.6397 13.0983 15.6456C12.7151 15.6692 12.32 15.6839 11.919 15.6869C11.8217 15.6898 11.7244 15.6898 11.6242 15.6898H11.6212C11.521 15.6898 11.4267 15.6898 11.3294 15.6869C10.9284 15.6839 10.5333 15.6692 10.15 15.6456C10.0498 15.6397 9.9525 15.6338 9.85521 15.625H9.85226C9.75203 15.6191 9.65768 15.6102 9.56039 15.6013C9.15351 15.566 8.76141 15.5217 8.38105 15.4657C8.28081 15.454 8.18352 15.4363 8.08623 15.4215H8.08328C7.98305 15.4068 7.88871 15.3891 7.79142 15.3714C7.37569 15.3006 6.98359 15.2151 6.61207 15.1208C6.51183 15.0942 6.4116 15.0677 6.31725 15.0412H6.31431C6.21407 15.0117 6.11973 14.9822 6.02244 14.9527C5.58609 14.8201 5.18805 14.6697 4.84309 14.5075C4.73991 14.4604 4.64262 14.4103 4.54828 14.3572C4.54828 14.3572 4.54533 14.3572 4.54533 14.3542C4.44215 14.3041 4.34486 14.2481 4.25346 14.1892C3.61074 13.7852 3.24512 13.3194 3.24512 12.827V10.5804H20.0003V10.5804Z" fill="#F6C358"/>
<path d="M20.0003 10.5804C20.0003 11.0727 19.6377 11.5356 18.995 11.9366C18.9006 11.9985 18.8033 12.0575 18.6972 12.1106C18.6058 12.1636 18.5085 12.2108 18.4053 12.2609C18.0603 12.4231 17.6623 12.5705 17.2259 12.7061C17.1286 12.7356 17.0314 12.7651 16.9311 12.7946H16.9282C16.8338 12.8211 16.7365 12.8477 16.6363 12.8742C16.2648 12.9686 15.8727 13.0541 15.457 13.1248C15.3597 13.1426 15.2624 13.1602 15.1621 13.1749H15.1592C15.0619 13.1897 14.9676 13.2074 14.8673 13.2192C14.487 13.2752 14.0949 13.3194 13.688 13.3548C13.5907 13.3637 13.4934 13.3725 13.3932 13.3784H13.3902C13.2929 13.3872 13.1986 13.3931 13.0984 13.399C12.7151 13.4226 12.32 13.4374 11.919 13.4403C11.8217 13.4433 11.7244 13.4433 11.6242 13.4433H11.6212C11.521 13.4433 11.4267 13.4433 11.3294 13.4403C10.9284 13.4374 10.5333 13.4226 10.15 13.399C10.0498 13.3931 9.9525 13.3872 9.85521 13.3784H9.85226C9.75203 13.3725 9.65768 13.3637 9.56039 13.3548C9.15351 13.3194 8.76141 13.2752 8.38105 13.2192C8.28081 13.2074 8.18352 13.1897 8.08623 13.1749H8.08328C7.98305 13.1602 7.88871 13.1426 7.79142 13.1248C7.37569 13.0541 6.98359 12.9686 6.61207 12.8742C6.51183 12.8477 6.4116 12.8211 6.31725 12.7946H6.31431C6.21407 12.7651 6.11973 12.7356 6.02244 12.7061C5.58609 12.5734 5.18805 12.4231 4.84309 12.2609C4.73991 12.2137 4.64262 12.1636 4.54828 12.1106C4.54828 12.1106 4.54533 12.1106 4.54533 12.1076C4.44215 12.0575 4.34486 12.0015 4.25346 11.9425C3.61074 11.5386 3.24512 11.0728 3.24512 10.5804C3.24512 9.0001 6.99832 7.71753 11.6243 7.71753C16.2502 7.71753 20.0003 9.00002 20.0003 10.5804Z" fill="#FCD462"/>
<path d="M11.5978 12.6432C11.5146 12.6432 11.4353 12.643 11.3539 12.6406C10.9656 12.6376 10.5835 12.6242 10.1993 12.6005C10.1051 12.5949 10.0163 12.5896 9.92765 12.5816L9.89143 12.5783H9.87657C9.80081 12.5735 9.72837 12.5668 9.65444 12.5601C9.21916 12.5221 8.84884 12.4795 8.49769 12.4277C8.41603 12.4177 8.35953 12.4084 8.30328 12.3993L8.14428 12.3748C8.08321 12.3649 7.93424 12.3377 7.93424 12.3377C7.5526 12.2726 7.18736 12.195 6.80883 12.0987C6.72043 12.0753 6.62433 12.0499 6.53396 12.0244L6.25439 11.9405C5.92212 11.8395 5.61701 11.7286 5.34501 11.61V11.6069L4.89892 11.3901L4.75751 11.3106H4.75192C4.7303 11.2977 4.70857 11.2841 4.6867 11.2701C4.21093 10.9711 4.04492 10.7125 4.04492 10.5804C4.04492 9.85319 6.92239 8.51749 11.6241 8.51749C16.3238 8.51749 19.2002 9.85315 19.2002 10.5804C19.2002 10.7119 19.0355 10.9683 18.5714 11.2577C18.473 11.3221 18.4041 11.3626 18.339 11.3953L18.2958 11.4186C18.2229 11.4609 18.1449 11.498 18.0627 11.5379C17.7704 11.6754 17.4084 11.8117 16.9885 11.9421C16.9118 11.9653 16.7114 12.0244 16.7114 12.0244C16.6208 12.0499 16.5274 12.0754 16.4312 12.1009C16.0606 12.195 15.6954 12.2726 15.3225 12.3362C15.244 12.3505 15.1713 12.3636 15.0983 12.3753L14.9352 12.4005C14.8823 12.4092 14.8294 12.4181 14.7744 12.4246C14.399 12.4795 14.0288 12.5221 13.6185 12.5578C13.5335 12.5656 13.452 12.573 13.3686 12.5784L13.3176 12.5816C13.2289 12.5897 13.1429 12.5949 13.0515 12.6002C12.6647 12.6242 12.2827 12.6376 11.9132 12.6402C11.8133 12.6431 11.7296 12.6432 11.645 12.6432C11.6381 12.6432 11.6055 12.6432 11.5978 12.6432Z" fill="#F6C358"/>
<path d="M4.84256 12.2628V14.5094C4.73938 14.4623 4.64209 14.4121 4.54774 14.359C4.54774 14.359 4.5448 14.359 4.5448 14.3561C4.44161 14.306 4.34433 14.25 4.25293 14.191V11.9444C4.34433 12.0033 4.44161 12.0594 4.5448 12.1095C4.5448 12.1125 4.54774 12.1125 4.54774 12.1125C4.64209 12.1655 4.73938 12.2156 4.84256 12.2628Z" fill="#DC8744"/>
<path d="M6.61112 12.8741V15.1208C6.51088 15.0942 6.41064 15.0677 6.3163 15.0412H6.31335C6.21312 15.0116 6.11877 14.9822 6.02148 14.9527V12.7061C6.11877 12.7356 6.21312 12.7651 6.31335 12.7945H6.3163C6.41064 12.821 6.51088 12.8476 6.61112 12.8741Z" fill="#DC8744"/>
<path d="M8.38065 13.2191V15.4657C8.28041 15.4539 8.18312 15.4362 8.08583 15.4215H8.08288C7.98265 15.4067 7.88831 15.389 7.79102 15.3714V13.1247C7.88831 13.1424 7.98265 13.1601 8.08288 13.1748H8.08583C8.18312 13.1896 8.28041 13.2073 8.38065 13.2191Z" fill="#DC8744"/>
<path d="M10.1492 13.3989V15.6456C10.049 15.6397 9.95167 15.6338 9.85438 15.6249H9.85143C9.7512 15.619 9.65686 15.6101 9.55957 15.6013V13.3547C9.65686 13.3635 9.7512 13.3724 9.85143 13.3783H9.85438C9.95167 13.3871 10.049 13.393 10.1492 13.3989Z" fill="#DC8744"/>
<path d="M11.9187 13.4402V15.6868C11.8214 15.6897 11.7242 15.6897 11.6239 15.6897H11.621C11.5207 15.6897 11.4264 15.6897 11.3291 15.6868V13.4402C11.4264 13.4431 11.5207 13.4431 11.621 13.4431H11.6239C11.7242 13.4431 11.8214 13.4431 11.9187 13.4402Z" fill="#DC8744"/>
<path d="M13.6883 13.3547V15.6013C13.591 15.6101 13.4937 15.619 13.3935 15.6249H13.3905C13.2932 15.6337 13.1989 15.6397 13.0986 15.6456V13.3989C13.1989 13.393 13.2932 13.3871 13.3905 13.3783H13.3935C13.4936 13.3724 13.591 13.3635 13.6883 13.3547Z" fill="#DC8744"/>
<path d="M15.4568 13.1247V15.3714C15.3595 15.389 15.2622 15.4067 15.162 15.4215H15.1591C15.0618 15.4362 14.9674 15.4539 14.8672 15.4657V13.2191C14.9674 13.2073 15.0618 13.1896 15.1591 13.1748H15.162C15.2622 13.1601 15.3595 13.1424 15.4568 13.1247Z" fill="#DC8744"/>
<path d="M17.2254 12.7061V14.9527C17.1281 14.9822 17.0308 15.0117 16.9306 15.0412H16.9276C16.8333 15.0677 16.736 15.0942 16.6357 15.1208V12.8741C16.736 12.8476 16.8333 12.8211 16.9276 12.7945H16.9306C17.0308 12.7651 17.128 12.7356 17.2254 12.7061Z" fill="#DC8744"/>
<path d="M18.9939 11.9366V14.1891C18.9025 14.2451 18.8052 14.304 18.6991 14.3571C18.6991 14.3571 18.6962 14.3571 18.6962 14.3601C18.6048 14.4102 18.5075 14.4574 18.4043 14.5075V12.2609C18.5075 12.2107 18.6048 12.1636 18.6962 12.1105C18.8023 12.0574 18.8996 11.9985 18.9939 11.9366Z" fill="#DC8744"/>
<path d="M16.7554 7.17307V9.41969C16.7554 9.91203 16.3927 10.3749 15.75 10.7818C15.6586 10.8379 15.5613 10.8968 15.4552 10.9499C15.4552 10.9499 15.4523 10.9499 15.4523 10.9528C15.3609 11.003 15.2636 11.0502 15.1604 11.1003C14.8154 11.2624 14.4174 11.4128 13.981 11.5454C13.8837 11.575 13.7864 11.6044 13.6862 11.6339H13.6833C13.5889 11.6604 13.4916 11.6869 13.3914 11.7135C13.0199 11.8078 12.6278 11.8933 12.2121 11.9641C12.1148 11.9818 12.0175 11.9995 11.9172 12.0143H11.9143C11.817 12.029 11.7227 12.0466 11.6224 12.0585C11.2421 12.1145 10.85 12.1587 10.4431 12.1941C10.3458 12.2029 10.2485 12.2118 10.1483 12.2177H10.1453C10.048 12.2265 9.95368 12.2325 9.85345 12.2383C9.47018 12.2619 9.07509 12.2767 8.6741 12.2796C8.57681 12.2826 8.47952 12.2826 8.37928 12.2826H8.37634C8.2761 12.2826 8.18176 12.2826 8.08447 12.2796C7.68348 12.2767 7.28843 12.2619 6.90512 12.2383C6.80489 12.2325 6.7076 12.2266 6.61031 12.2177H6.60736C6.50712 12.2118 6.41278 12.2029 6.31549 12.1941C5.90861 12.1587 5.5165 12.1145 5.13614 12.0585C5.03591 12.0467 4.93862 12.029 4.84133 12.0143H4.83838C4.73815 11.9995 4.6438 11.9818 4.54651 11.9641C4.13079 11.8933 3.73869 11.8078 3.36717 11.7135C3.26693 11.6869 3.16669 11.6604 3.07235 11.6339H3.0694C2.96917 11.6044 2.87482 11.575 2.77754 11.5454C2.34118 11.4128 1.94314 11.2624 1.59819 11.1003C1.495 11.0531 1.39771 11.003 1.30337 10.9499C1.30337 10.9499 1.30043 10.9499 1.30043 10.9469C1.19724 10.8968 1.09995 10.8408 1.00856 10.7819C0.365583 10.3779 0 9.91203 0 9.41969V7.17307H16.7554Z" fill="#F6C358"/>
<path d="M16.7554 7.17308C16.7554 7.66546 16.3927 8.12833 15.75 8.52932C15.6557 8.59121 15.5584 8.65019 15.4522 8.70332C15.3608 8.75636 15.2635 8.80351 15.1603 8.85365C14.8154 9.01581 14.4173 9.16324 13.981 9.29884C13.8837 9.32831 13.7864 9.35782 13.6862 9.38725H13.6832C13.5889 9.41381 13.4916 9.44038 13.3914 9.46686C13.0199 9.56124 12.6277 9.64674 12.212 9.71751C12.1147 9.73523 12.0174 9.75287 11.9172 9.76761H11.9143C11.817 9.78238 11.7226 9.80007 11.6224 9.81185C11.2421 9.86789 10.8499 9.91209 10.443 9.94749C10.3457 9.95634 10.2484 9.96518 10.1482 9.97107H10.1453C10.048 9.97987 9.95364 9.9858 9.85341 9.9917C9.47014 10.0153 9.07505 10.03 8.67406 10.033C8.57677 10.0359 8.47948 10.0359 8.37924 10.0359H8.3763C8.27606 10.0359 8.18172 10.0359 8.08443 10.033C7.68344 10.0301 7.28839 10.0153 6.90508 9.9917C6.80484 9.9858 6.70755 9.97991 6.61026 9.97107H6.60732C6.50708 9.96518 6.41274 9.95634 6.31545 9.94749C5.90857 9.91209 5.51646 9.86789 5.1361 9.81185C5.03587 9.80007 4.93858 9.78238 4.84129 9.76761H4.83834C4.7381 9.75287 4.64376 9.73523 4.54647 9.71751C4.13075 9.64674 3.73864 9.56124 3.36712 9.46686C3.26689 9.44038 3.16665 9.41381 3.07231 9.38725H3.06936C2.96912 9.35782 2.87478 9.32831 2.77749 9.29884C2.34114 9.16615 1.9431 9.01581 1.59814 8.85365C1.49496 8.80646 1.39767 8.75636 1.30333 8.70332C1.30333 8.70332 1.30038 8.70332 1.30038 8.70037C1.1972 8.65019 1.09991 8.5942 1.00851 8.53526C0.365583 8.13128 0 7.66546 0 7.17308C0 5.59278 3.75321 4.31021 8.37916 4.31021C13.0051 4.31021 16.7554 5.59278 16.7554 7.17308Z" fill="#FCD462"/>
<path d="M8.35371 9.23586C8.26974 9.23586 8.18992 9.23573 8.10762 9.23338C7.72064 9.23026 7.33849 9.21685 6.95386 9.19328C6.86063 9.18768 6.77158 9.18247 6.68249 9.17427L6.64627 9.17102H6.63141C6.55565 9.1662 6.48321 9.15945 6.40928 9.15279C5.974 9.11478 5.60368 9.0722 5.25253 9.02035C5.17168 9.01044 5.11595 9.00134 5.06047 8.99238L4.89929 8.96765C4.84005 8.958 4.68951 8.93041 4.68951 8.93041C4.30889 8.8657 3.94369 8.7881 3.56371 8.69145C3.4748 8.66801 3.37896 8.64264 3.28859 8.61723L3.0097 8.53326C2.67743 8.43221 2.3722 8.32143 2.09993 8.20278V8.19967L1.65346 7.98262L1.51218 7.90331H1.50684C1.48523 7.89041 1.46362 7.877 1.44188 7.86308C0.965855 7.56374 0.799805 7.30514 0.799805 7.17313C0.799805 6.44593 3.67728 5.11023 8.37895 5.11023C13.0787 5.11023 15.9551 6.44589 15.9551 7.17313C15.9551 7.30463 15.7904 7.56101 15.3263 7.85074C15.228 7.9148 15.1588 7.95542 15.0939 7.98796L15.0507 8.01128C14.9778 8.0536 14.8997 8.09072 14.8176 8.13056C14.5253 8.26808 14.1633 8.40441 13.7434 8.53484L13.4663 8.61727C13.3759 8.64268 13.283 8.66805 13.1871 8.69329C12.8142 8.7881 12.449 8.8657 12.0776 8.92883C11.997 8.94339 11.9225 8.9571 11.8479 8.96893L11.6887 8.9934C11.6362 9.00198 11.5837 9.01087 11.5292 9.01723C11.1537 9.0722 10.7836 9.11478 10.3733 9.15044C10.2889 9.15813 10.207 9.16569 10.1235 9.17102L10.0724 9.17427C9.98346 9.18234 9.89697 9.18768 9.80532 9.19315C9.41937 9.21685 9.03721 9.23026 8.6677 9.23299C8.56862 9.23573 8.48435 9.23586 8.39932 9.23586C8.39266 9.23586 8.36114 9.23586 8.35371 9.23586Z" fill="#F6C358"/>
<path d="M1.59744 8.85553V11.1022C1.49426 11.055 1.39697 11.0049 1.30263 10.9518C1.30263 10.9518 1.29968 10.9518 1.29968 10.9488C1.1965 10.8987 1.09921 10.8427 1.00781 10.7838V8.53714C1.09921 8.59608 1.1965 8.65211 1.29968 8.70225C1.29968 8.7052 1.30263 8.7052 1.30263 8.7052C1.39697 8.75824 1.49426 8.80834 1.59744 8.85553Z" fill="#DC8744"/>
<path d="M3.366 9.46684V11.7135C3.26576 11.6869 3.16553 11.6604 3.07118 11.6339H3.06824C2.968 11.6044 2.87366 11.575 2.77637 11.5455V9.29883C2.87366 9.3283 2.968 9.35781 3.06824 9.38723H3.07118C3.16553 9.4138 3.26576 9.44036 3.366 9.46684Z" fill="#DC8744"/>
<path d="M5.13553 9.81181V12.0584C5.03529 12.0466 4.938 12.029 4.84071 12.0142H4.83777C4.73753 11.9995 4.64319 11.9818 4.5459 11.9641V9.71747C4.64319 9.73519 4.73753 9.75283 4.83777 9.76756H4.84071C4.938 9.78234 5.03529 9.80007 5.13553 9.81181Z" fill="#DC8744"/>
<path d="M6.90408 9.99165V12.2383C6.80385 12.2324 6.70656 12.2265 6.60927 12.2177H6.60632C6.50609 12.2118 6.41174 12.2029 6.31445 12.194V9.94745C6.41174 9.95629 6.50609 9.96513 6.60632 9.97102H6.60927C6.70656 9.97986 6.8038 9.98576 6.90408 9.99165Z" fill="#DC8744"/>
<path d="M8.67362 10.0329V12.2796C8.57633 12.2825 8.47904 12.2825 8.3788 12.2825H8.37585C8.27562 12.2825 8.18127 12.2825 8.08398 12.2796V10.0329C8.18127 10.0359 8.27562 10.0359 8.37585 10.0359H8.3788C8.47904 10.0359 8.57633 10.0359 8.67362 10.0329Z" fill="#DC8744"/>
<path d="M10.4431 9.94745V12.194C10.3458 12.2029 10.2485 12.2118 10.1483 12.2177H10.1454C10.0481 12.2265 9.95375 12.2324 9.85352 12.2383V9.99165C9.95375 9.98576 10.0481 9.97986 10.1454 9.97102H10.1483C10.2485 9.96513 10.3458 9.95633 10.4431 9.94745Z" fill="#DC8744"/>
<path d="M12.2117 9.71747V11.9641C12.1144 11.9818 12.0171 11.9995 11.9169 12.0142H11.9139C11.8166 12.029 11.7223 12.0466 11.6221 12.0584V9.81181C11.7223 9.80002 11.8166 9.78234 11.9139 9.76756H11.9169C12.0171 9.75287 12.1144 9.73519 12.2117 9.71747Z" fill="#DC8744"/>
<path d="M13.9803 9.29877V11.5454C13.883 11.5749 13.7856 11.6043 13.6854 11.6338H13.6825C13.5882 11.6604 13.4909 11.6869 13.3906 11.7135V9.46678C13.4909 9.4403 13.5882 9.41374 13.6825 9.38717H13.6854C13.7856 9.35775 13.8829 9.32824 13.9803 9.29877Z" fill="#DC8744"/>
<path d="M15.7488 8.52927V10.7818C15.6574 10.8378 15.5601 10.8968 15.454 10.9498C15.454 10.9498 15.451 10.9498 15.451 10.9528C15.3597 11.0029 15.2624 11.0501 15.1592 11.1002V8.85359C15.2624 8.80345 15.3597 8.7563 15.451 8.70326C15.5572 8.65013 15.6545 8.59119 15.7488 8.52927Z" fill="#DC8744"/>
<path d="M20.0003 3.76581V6.01244C20.0003 6.50478 19.6376 6.96769 18.9949 7.37457C18.9035 7.43061 18.8062 7.48954 18.7001 7.54263C18.7001 7.54263 18.6972 7.54263 18.6972 7.54558C18.6058 7.59572 18.5085 7.64291 18.4053 7.69301C18.0603 7.85517 17.6623 8.00555 17.2259 8.1382C17.1286 8.16771 17.0314 8.19713 16.9311 8.22665H16.9282C16.8338 8.25317 16.7365 8.27969 16.6363 8.30625C16.2648 8.4006 15.8727 8.48606 15.457 8.55687C15.3597 8.57455 15.2624 8.59223 15.1621 8.60701H15.1592C15.0619 8.62174 14.9676 8.63938 14.8673 8.65121C14.487 8.7072 14.0949 8.75149 13.688 8.78681C13.5907 8.79565 13.4934 8.80453 13.3932 8.81043H13.3902C13.2929 8.81927 13.1986 8.8252 13.0983 8.8311C12.7151 8.85463 12.32 8.86941 11.919 8.87235C11.8217 8.8753 11.7244 8.8753 11.6242 8.8753H11.6212C11.521 8.8753 11.4267 8.8753 11.3294 8.87235C10.9284 8.86941 10.5333 8.85463 10.15 8.8311C10.0498 8.8252 9.9525 8.81931 9.85521 8.81043H9.85226C9.75203 8.80453 9.65768 8.79565 9.56039 8.78681C9.15351 8.75145 8.76141 8.7072 8.38105 8.65121C8.28081 8.63942 8.18352 8.62174 8.08623 8.60701H8.08328C7.98305 8.59227 7.88871 8.57455 7.79142 8.55687C7.37569 8.48606 6.98359 8.4006 6.61207 8.30625C6.51183 8.27969 6.4116 8.25317 6.31725 8.22665H6.31431C6.21407 8.19713 6.11973 8.16771 6.02244 8.1382C5.58609 8.00555 5.18805 7.85517 4.84309 7.69301C4.73991 7.64586 4.64262 7.59572 4.54828 7.54263C4.54828 7.54263 4.54533 7.54263 4.54533 7.53968C4.44215 7.48959 4.34486 7.4336 4.25346 7.37462C3.61074 6.97068 3.24512 6.50482 3.24512 6.01248V3.76581H20.0003Z" fill="#F6C358"/>
<path d="M20.0003 3.76581C20.0003 4.25819 19.6377 4.72106 18.995 5.12205C18.9006 5.18394 18.8033 5.24292 18.6972 5.29605C18.6058 5.34909 18.5085 5.39624 18.4053 5.44638C18.0603 5.60854 17.6623 5.75597 17.2259 5.89157C17.1286 5.92104 17.0314 5.95055 16.9311 5.98002H16.9282C16.8338 6.00658 16.7365 6.03315 16.6363 6.05963C16.2648 6.15401 15.8727 6.23952 15.457 6.31028C15.3597 6.32801 15.2624 6.34564 15.1621 6.36038H15.1592C15.0619 6.37516 14.9676 6.39284 14.8673 6.40462C14.487 6.46066 14.0949 6.50486 13.688 6.54027C13.5907 6.54911 13.4934 6.55795 13.3932 6.56384H13.3902C13.2929 6.57264 13.1986 6.57858 13.0984 6.58447C12.7151 6.60809 12.32 6.62282 11.919 6.62577C11.8217 6.62872 11.7244 6.62872 11.6242 6.62872H11.6212C11.521 6.62872 11.4267 6.62872 11.3294 6.62577C10.9284 6.62286 10.5333 6.60809 10.15 6.58447C10.0498 6.57858 9.9525 6.57268 9.85521 6.56384H9.85226C9.75203 6.55795 9.65768 6.54911 9.56039 6.54027C9.15351 6.50486 8.76141 6.46066 8.38105 6.40462C8.28081 6.39284 8.18352 6.37516 8.08623 6.36038H8.08328C7.98305 6.34564 7.88871 6.32801 7.79142 6.31028C7.37569 6.23952 6.98359 6.15401 6.61207 6.05963C6.51183 6.03315 6.4116 6.00658 6.31725 5.98002H6.31431C6.21407 5.95059 6.11973 5.92108 6.02244 5.89157C5.58609 5.75888 5.18805 5.60854 4.84309 5.44638C4.73991 5.39919 4.64262 5.34909 4.54828 5.29605C4.54828 5.29605 4.54533 5.29605 4.54533 5.2931C4.44215 5.24292 4.34486 5.18693 4.25346 5.12799C3.61074 4.72405 3.24512 4.25823 3.24512 3.76585C3.24512 2.18556 6.99832 0.902985 11.6243 0.902985C16.2502 0.902985 20.0003 2.18552 20.0003 3.76581Z" fill="#FCD462"/>
<path d="M11.5978 5.82868C11.5146 5.82868 11.4353 5.82855 11.3538 5.82608C10.9658 5.82296 10.5836 5.80955 10.199 5.78597C10.1051 5.78038 10.0163 5.77504 9.92761 5.76697L9.89139 5.76372H9.87653C9.80076 5.7589 9.72833 5.75215 9.6544 5.74549C9.21963 5.70748 8.84931 5.6649 8.49739 5.61318C8.41795 5.6034 8.36235 5.59417 8.30704 5.58533L8.14441 5.56035C8.08556 5.55082 7.93424 5.5231 7.93424 5.5231C7.55392 5.4584 7.18868 5.3808 6.80883 5.28415C6.71991 5.2607 6.62408 5.23534 6.53396 5.20992L6.2535 5.12579C5.92251 5.02513 5.61757 4.91421 5.34505 4.79557V4.79232L4.89896 4.57554L4.75755 4.49597H4.75183C4.73035 4.4832 4.70887 4.46979 4.68751 4.456C4.21093 4.15653 4.04492 3.89793 4.04492 3.76574C4.04492 3.03855 6.92239 1.70285 11.6241 1.70285C16.3238 1.70285 19.2002 3.03851 19.2002 3.76574C19.2002 3.89724 19.0355 4.15362 18.5714 4.44335C18.4731 4.50742 18.404 4.54803 18.339 4.58058L18.2958 4.60389C18.2216 4.64699 18.142 4.68474 18.0583 4.72553C17.7706 4.8607 17.4084 4.99702 16.9884 5.12763L16.7114 5.20992C16.621 5.23534 16.5281 5.2607 16.4322 5.28594C16.0593 5.38076 15.694 5.45836 15.3227 5.52148C15.241 5.53634 15.1669 5.54988 15.0925 5.56158L14.9318 5.58631C14.8796 5.5949 14.8275 5.60361 14.7733 5.61002C14.3985 5.66498 14.0281 5.70739 13.6184 5.74309C13.5334 5.75091 13.4519 5.75834 13.3685 5.76368L13.3175 5.76693C13.2288 5.775 13.1428 5.78034 13.0515 5.78567C12.6645 5.80951 12.2823 5.82292 11.9128 5.82565C11.8132 5.82851 11.7294 5.82864 11.6448 5.82864C11.638 5.82868 11.6054 5.82868 11.5978 5.82868Z" fill="#F6C358"/>
<path d="M4.84256 5.44827V7.6949C4.73938 7.64775 4.64209 7.59761 4.54774 7.54452C4.54774 7.54452 4.5448 7.54452 4.5448 7.54157C4.44161 7.49148 4.34433 7.43549 4.25293 7.37651V5.12988C4.34433 5.18882 4.44161 5.24485 4.5448 5.29499C4.5448 5.29794 4.54774 5.29794 4.54774 5.29794C4.64209 5.35098 4.73938 5.40112 4.84256 5.44827Z" fill="#DC8744"/>
<path d="M6.61112 6.05962V8.30629C6.51088 8.27972 6.41064 8.2532 6.3163 8.22668H6.31335C6.21312 8.19717 6.11877 8.16774 6.02148 8.13823V5.8916C6.11877 5.92107 6.21312 5.95058 6.31335 5.98005H6.3163C6.41064 6.00657 6.51088 6.03314 6.61112 6.05962Z" fill="#DC8744"/>
<path d="M8.38065 6.40455V8.65118C8.28041 8.63939 8.18312 8.62171 8.08583 8.60698H8.08288C7.98265 8.59224 7.88831 8.57452 7.79102 8.55684V6.31021C7.88831 6.32794 7.98265 6.34557 8.08288 6.36031H8.08583C8.18312 6.37508 8.28041 6.39281 8.38065 6.40455Z" fill="#DC8744"/>
<path d="M10.1492 6.58439V8.83106C10.049 8.82517 9.95167 8.81928 9.85438 8.81039H9.85143C9.7512 8.8045 9.65686 8.79562 9.55957 8.78678V6.54019C9.65686 6.54903 9.7512 6.55787 9.85143 6.56377H9.85438C9.95167 6.57261 10.049 6.5785 10.1492 6.58439Z" fill="#DC8744"/>
<path d="M11.9187 6.6257V8.87233C11.8214 8.87528 11.7242 8.87528 11.6239 8.87528H11.621C11.5207 8.87528 11.4264 8.87528 11.3291 8.87233V6.6257C11.4264 6.62865 11.5207 6.62865 11.621 6.62865H11.6239C11.7242 6.62865 11.8214 6.62865 11.9187 6.6257Z" fill="#DC8744"/>
<path d="M13.6883 6.54022V8.78681C13.591 8.79565 13.4937 8.80453 13.3935 8.81042H13.3905C13.2932 8.81926 13.1989 8.8252 13.0986 8.83109V6.58443C13.1989 6.57853 13.2932 6.57264 13.3905 6.5638H13.3935C13.4936 6.55786 13.591 6.54906 13.6883 6.54022Z" fill="#DC8744"/>
<path d="M15.4568 6.31024V8.55687C15.3595 8.57455 15.2622 8.59223 15.162 8.60701H15.1591C15.0618 8.62174 14.9674 8.63938 14.8672 8.65121V6.40454C14.9674 6.39275 15.0618 6.37507 15.1591 6.3603H15.162C15.2622 6.3456 15.3595 6.32792 15.4568 6.31024Z" fill="#DC8744"/>
<path d="M17.2254 5.8916V8.13823C17.1281 8.16774 17.0308 8.19717 16.9306 8.22668H16.9276C16.8333 8.2532 16.736 8.27972 16.6357 8.30629V6.05962C16.736 6.03314 16.8333 6.00657 16.9276 5.98001H16.9306C17.0308 5.95058 17.128 5.92107 17.2254 5.8916Z" fill="#DC8744"/>
<path d="M18.9939 5.12207V7.37459C18.9025 7.43062 18.8052 7.48956 18.6991 7.54264C18.6991 7.54264 18.6962 7.54264 18.6962 7.54559C18.6048 7.59573 18.5075 7.64292 18.4043 7.69302V5.4464C18.5075 5.39626 18.6048 5.34911 18.6962 5.29606C18.8023 5.24289 18.8996 5.18395 18.9939 5.12207Z" fill="#DC8744"/>
</g>
<defs>
<clipPath id="clip0">
<rect width="20" height="20" fill="white"/>
</clipPath>
</defs>
</svg>
