<svg width="249" height="46" viewBox="0 0 249 46" fill="none" xmlns="http://www.w3.org/2000/svg">
<g clip-path="url(#clip0)">
<path d="M65.1562 24.8254H60.4142V15.126H60.1424L58.3603 24.8254H53.4974L51.806 15.126H51.504V24.8254H46.8223L47.4566 6.23486H54.2525L55.944 16.2935H56.1856L57.8166 6.23486H64.522L65.1562 24.8254ZM80.6392 10.4858L76.8939 25.2445C76.5115 26.7214 75.948 27.7492 75.2024 28.328C74.4576 28.9267 73.2394 29.2261 71.548 29.2261H68.5275L68.0745 25.3643H69.7659C70.4505 25.3643 70.7928 25.0949 70.7928 24.556C70.7928 24.4363 70.7526 24.1768 70.672 23.7777L67.1986 10.4858H72.5749L73.9339 19.4369H74.2057L75.6857 10.4858H80.6392ZM99.6766 24.8254H90.1321V6.23486H95.297V20.6643H99.9787L99.6766 24.8254ZM112.462 14.2279L112.311 20.4248C112.311 20.8039 112.401 21.0634 112.583 21.2031C112.784 21.3229 113.116 21.3827 113.579 21.3827L113.126 25.0051C111.959 25.0849 111.314 25.1248 111.193 25.1248C109.703 25.1248 108.757 24.6159 108.354 23.598H108.203C107.458 24.6159 106.31 25.1248 104.76 25.1248C103.571 25.1248 102.656 24.7456 102.011 23.9872C101.387 23.2288 101.075 22.191 101.075 20.8738C101.075 19.2173 101.588 18.0698 102.615 17.4311C103.662 16.7924 105.303 16.3733 107.539 16.1738V15.4553C107.539 14.8965 107.256 14.6171 106.693 14.6171C105.726 14.6171 104.216 14.9064 102.162 15.4852L101.407 11.1145C103.985 10.4559 106.129 10.1266 107.841 10.1266C109.552 10.1266 110.75 10.4559 111.435 11.1145C112.119 11.7731 112.462 12.8109 112.462 14.2279ZM106.632 21.6222C107.377 21.6222 107.75 21.2331 107.75 20.4547V18.9878C107.005 19.0876 106.471 19.2472 106.149 19.4668C105.847 19.6664 105.696 20.0157 105.696 20.5146C105.696 21.253 106.008 21.6222 106.632 21.6222ZM120.663 11.5336C121.771 10.5956 122.989 10.1266 124.318 10.1266C125.647 10.1266 126.574 10.436 127.097 11.0546C127.64 11.6534 127.912 12.5615 127.912 13.7789V24.8254H122.778V15.4852C122.778 14.9863 122.557 14.7368 122.113 14.7368C121.55 14.7368 121.077 14.8765 120.694 15.1559V24.8254H115.619V10.4858H120.24L120.543 11.5336H120.663ZM135.004 26.1426H138.115C138.478 26.1426 138.659 25.983 138.659 25.6637V25.5439C138.659 25.2445 138.478 25.0949 138.115 25.0949H135.004C134.682 25.0949 134.521 25.2545 134.521 25.5738V25.6936C134.521 25.993 134.682 26.1426 135.004 26.1426ZM136.213 10.1266H143.341V13.4795H141.166V13.6292C141.811 14.188 142.133 14.9165 142.133 15.8145C142.133 19.0077 140.31 20.6044 136.666 20.6044H135.216C134.853 20.6044 134.672 20.774 134.672 21.1133C134.672 21.4326 134.843 21.5923 135.186 21.5923H139.293C141.609 21.5923 142.767 22.5902 142.767 24.5859C142.767 26.2224 142.213 27.4 141.106 28.1184C139.998 28.8569 138.468 29.2261 136.515 29.2261C134.562 29.2261 133.082 29.0165 132.075 28.5974C131.088 28.1983 130.595 27.4399 130.595 26.3223C130.595 25.7036 130.987 25.1847 131.773 24.7656V24.6458C130.786 24.107 130.293 23.3286 130.293 22.3108C130.293 21.1133 131.068 20.2052 132.618 19.5865C131.893 19.0676 131.35 18.4689 130.987 17.7904C130.645 17.0918 130.474 16.1738 130.474 15.0362C130.474 13.4596 130.987 12.2521 132.014 11.4139C133.061 10.5557 134.461 10.1266 136.213 10.1266ZM137.542 15.8744C137.542 15.2357 137.461 14.7768 137.3 14.4973C137.159 14.198 136.887 14.0483 136.484 14.0483C136.081 14.0483 135.8 14.198 135.639 14.4973C135.498 14.7768 135.427 15.2158 135.427 15.8145C135.427 17.0319 135.79 17.6407 136.515 17.6407C137.199 17.6407 137.542 17.0519 137.542 15.8744ZM148.723 25.1248C146.327 25.1248 145.129 23.8076 145.129 21.1732V10.4858H150.263V19.9458C150.263 20.4447 150.485 20.6942 150.928 20.6942C151.491 20.6942 151.965 20.5545 152.347 20.2751V10.4858H157.422V24.7656H152.619V23.7178H152.499C151.391 24.6558 150.132 25.1248 148.723 25.1248ZM171.038 14.2279L170.887 20.4248C170.887 20.8039 170.978 21.0634 171.159 21.2031C171.36 21.3229 171.692 21.3827 172.156 21.3827L171.702 25.0051C170.534 25.0849 169.89 25.1248 169.769 25.1248C168.279 25.1248 167.332 24.6159 166.93 23.598H166.779C166.034 24.6159 164.886 25.1248 163.336 25.1248C162.148 25.1248 161.231 24.7456 160.587 23.9872C159.963 23.2288 159.651 22.191 159.651 20.8738C159.651 19.2173 160.164 18.0698 161.191 17.4311C162.238 16.7924 163.88 16.3733 166.115 16.1738V15.4553C166.115 14.8965 165.833 14.6171 165.269 14.6171C164.302 14.6171 162.792 14.9064 160.738 15.4852L159.983 11.1145C162.56 10.4559 164.705 10.1266 166.417 10.1266C168.128 10.1266 169.326 10.4559 170.011 11.1145C170.695 11.7731 171.038 12.8109 171.038 14.2279ZM165.209 21.6222C165.953 21.6222 166.326 21.2331 166.326 20.4547V18.9878C165.581 19.0876 165.047 19.2472 164.725 19.4668C164.423 19.6664 164.272 20.0157 164.272 20.5146C164.272 21.253 164.584 21.6222 165.209 21.6222ZM178.575 26.1426H181.686C182.048 26.1426 182.23 25.983 182.23 25.6637V25.5439C182.23 25.2445 182.048 25.0949 181.686 25.0949H178.575C178.253 25.0949 178.092 25.2545 178.092 25.5738V25.6936C178.092 25.993 178.253 26.1426 178.575 26.1426ZM179.783 10.1266H186.911V13.4795H184.737V13.6292C185.381 14.188 185.703 14.9165 185.703 15.8145C185.703 19.0077 183.881 20.6044 180.236 20.6044H178.786C178.424 20.6044 178.243 20.774 178.243 21.1133C178.243 21.4326 178.414 21.5923 178.756 21.5923H182.864C185.18 21.5923 186.337 22.5902 186.337 24.5859C186.337 26.2224 185.784 27.4 184.676 28.1184C183.569 28.8569 182.039 29.2261 180.085 29.2261C178.132 29.2261 176.652 29.0165 175.645 28.5974C174.659 28.1983 174.165 27.4399 174.165 26.3223C174.165 25.7036 174.558 25.1847 175.343 24.7656V24.6458C174.357 24.107 173.863 23.3286 173.863 22.3108C173.863 21.1133 174.639 20.2052 176.189 19.5865C175.464 19.0676 174.92 18.4689 174.558 17.7904C174.216 17.0918 174.044 16.1738 174.044 15.0362C174.044 13.4596 174.558 12.2521 175.585 11.4139C176.632 10.5557 178.031 10.1266 179.783 10.1266ZM181.112 15.8744C181.112 15.2357 181.032 14.7768 180.871 14.4973C180.73 14.198 180.458 14.0483 180.055 14.0483C179.653 14.0483 179.371 14.198 179.209 14.4973C179.069 14.7768 178.998 15.2158 178.998 15.8145C178.998 17.0319 179.36 17.6407 180.085 17.6407C180.77 17.6407 181.112 17.0519 181.112 15.8744ZM194.74 14.4075C194.217 14.4075 193.874 14.5871 193.713 14.9464C193.553 15.2857 193.472 15.8145 193.472 16.533H196.099V15.8145C196.099 14.8765 195.646 14.4075 194.74 14.4075ZM194.861 10.1266C196.935 10.1266 198.415 10.6255 199.301 11.6234C200.207 12.6013 200.66 14.0084 200.66 15.8445C200.66 16.084 200.59 17.1617 200.449 19.0776H193.562C193.562 20.5745 194.257 21.3229 195.646 21.3229C196.311 21.3229 197.609 21.0934 199.543 20.6343L199.965 24.3465C198.274 24.8654 196.583 25.1248 194.891 25.1248C192.817 25.1248 191.227 24.4562 190.119 23.1191C189.012 21.7619 188.458 19.9258 188.458 17.6107C188.458 12.6213 190.593 10.1266 194.861 10.1266ZM223.837 19.4668C223.837 23.0392 221.904 24.8254 218.038 24.8254H210.638V6.23486H217.887C219.8 6.23486 221.22 6.62404 222.146 7.40239C223.072 8.1608 223.535 9.3782 223.535 11.0546C223.535 12.7311 222.84 14.0084 221.451 14.8865V15.0661C223.042 15.6848 223.837 17.1517 223.837 19.4668ZM216.83 21.5025C217.434 21.5025 217.837 21.3727 218.038 21.1133C218.26 20.8339 218.37 20.2751 218.37 19.4369C218.37 18.5787 218.26 17.98 218.038 17.6407C217.817 17.2814 217.414 17.1018 216.83 17.1018H215.863V21.5025H216.83ZM216.86 14.198C217.323 14.198 217.645 14.0583 217.826 13.7789C218.008 13.4994 218.098 13.0105 218.098 12.312C218.098 11.5935 217.998 11.0946 217.796 10.8151C217.615 10.5158 217.293 10.3661 216.83 10.3661H215.863V14.198H216.86ZM236.979 14.2279L236.828 20.4248C236.828 20.8039 236.919 21.0634 237.1 21.2031C237.301 21.3229 237.634 21.3827 238.097 21.3827L237.644 25.0051C236.476 25.0849 235.832 25.1248 235.711 25.1248C234.221 25.1248 233.275 24.6159 232.872 23.598H232.721C231.976 24.6159 230.828 25.1248 229.277 25.1248C228.089 25.1248 227.173 24.7456 226.529 23.9872C225.905 23.2288 225.593 22.191 225.593 20.8738C225.593 19.2173 226.106 18.0698 227.133 17.4311C228.18 16.7924 229.821 16.3733 232.056 16.1738V15.4553C232.056 14.8965 231.774 14.6171 231.21 14.6171C230.244 14.6171 228.734 14.9064 226.68 15.4852L225.925 11.1145C228.502 10.4559 230.647 10.1266 232.358 10.1266C234.07 10.1266 235.268 10.4559 235.953 11.1145C236.637 11.7731 236.979 12.8109 236.979 14.2279ZM231.15 21.6222C231.895 21.6222 232.268 21.2331 232.268 20.4547V18.9878C231.523 19.0876 230.989 19.2472 230.667 19.4668C230.365 19.6664 230.214 20.0157 230.214 20.5146C230.214 21.253 230.526 21.6222 231.15 21.6222ZM245.152 16.7725V24.8254H240.138V10.4858H244.547L244.85 11.354H244.97C245.433 10.8351 245.896 10.5058 246.36 10.3661C246.843 10.2064 247.618 10.1266 248.685 10.1266L248.474 14.9165H247.085C246.299 14.9165 245.776 15.0362 245.514 15.2757C245.272 15.5152 245.152 16.0141 245.152 16.7725Z" fill="white"/>
<path d="M0.589203 39.5435C0.589203 38.8633 0.723015 38.2515 0.990642 37.7082C1.26258 37.1648 1.63812 36.7456 2.11725 36.4504C2.6007 36.1552 3.15106 36.0076 3.76832 36.0076C4.72228 36.0076 5.49277 36.3349 6.07982 36.9894C6.67118 37.644 6.96686 38.5146 6.96686 39.6013V39.6848C6.96686 40.3607 6.83521 40.9682 6.5719 41.5073C6.31291 42.0421 5.93953 42.4592 5.45176 42.7586C4.96831 43.0582 4.41148 43.2079 3.78127 43.2079C2.83164 43.2079 2.06114 42.8806 1.46978 42.2261C0.882725 41.5715 0.589203 40.7051 0.589203 39.627V39.5435ZM1.79351 39.6848C1.79351 40.4548 1.97264 41.0731 2.33092 41.5394C2.69351 42.0057 3.17696 42.2388 3.78127 42.2388C4.3899 42.2388 4.87335 42.0036 5.23162 41.5329C5.58989 41.058 5.76903 40.3949 5.76903 39.5435C5.76903 38.7821 5.58558 38.1659 5.21867 37.6954C4.85609 37.2205 4.37264 36.983 3.76832 36.983C3.17696 36.983 2.69998 37.2162 2.33739 37.6825C1.9748 38.1489 1.79351 38.8162 1.79351 39.6848ZM14.9883 43.0795H13.7905V40.1147H10.5726V43.0795H9.36822V36.1359H10.5726V39.1457H13.7905V36.1359H14.9883V43.0795ZM23.4566 36.1359V43.0795H22.2523V37.1178H19.8695L19.7271 39.7168C19.6494 40.9105 19.4465 41.764 19.1185 42.2774C18.7947 42.7908 18.2789 43.0582 17.571 43.0795H17.0919V42.0335L17.435 42.0078C17.8235 41.965 18.1019 41.7426 18.2703 41.3405C18.4386 40.9383 18.5465 40.1939 18.594 39.1072L18.7235 36.1359H23.4566ZM30.5004 43.0795C30.4313 42.9426 30.3752 42.6988 30.332 42.3479C29.7752 42.9213 29.1105 43.2079 28.3378 43.2079C27.6472 43.2079 27.0796 43.0154 26.6349 42.6304C26.1947 42.241 25.9745 41.749 25.9745 41.1543C25.9745 40.4313 26.2508 39.8709 26.8033 39.4729C27.3601 39.0708 28.1414 38.8697 29.1471 38.8697H30.3126V38.3242C30.3126 37.9092 30.1874 37.5798 29.9371 37.336C29.6867 37.0878 29.3176 36.9637 28.8299 36.9637C28.4026 36.9637 28.0442 37.0707 27.755 37.2846C27.4659 37.4985 27.3213 37.7573 27.3213 38.0612H26.1169C26.1169 37.7146 26.24 37.3809 26.486 37.0601C26.7363 36.7348 27.0731 36.4782 27.4961 36.2899C27.9234 36.1017 28.3917 36.0076 28.9011 36.0076C29.7083 36.0076 30.3406 36.2086 30.7982 36.6108C31.2558 37.0086 31.4932 37.5585 31.5104 38.2601V41.456C31.5104 42.0934 31.5924 42.6004 31.7565 42.9769V43.0795H30.5004ZM28.5126 42.1747C28.8881 42.1747 29.2442 42.0784 29.581 41.8859C29.9176 41.6934 30.1616 41.4431 30.3126 41.1351V39.7104H29.3737C27.9061 39.7104 27.1723 40.1361 27.1723 40.9875C27.1723 41.3597 27.2975 41.6506 27.5479 41.8603C27.7982 42.0699 28.1198 42.1747 28.5126 42.1747ZM38.7161 36.1359H39.914V43.0795H38.7161V38.0162L35.4851 43.0795H34.2874V36.1359H35.4851V41.2057L38.7161 36.1359ZM39.0398 33.6074C39.0398 34.1251 38.8607 34.5422 38.5024 34.8588C38.1485 35.1711 37.6823 35.3273 37.1039 35.3273C36.5254 35.3273 36.0571 35.169 35.6989 34.8524C35.3405 34.5358 35.1614 34.1209 35.1614 33.6074H36.1391C36.1391 33.9069 36.2212 34.1423 36.3852 34.3133C36.5492 34.4803 36.7888 34.5636 37.1039 34.5636C37.4061 34.5636 37.6413 34.4803 37.8096 34.3133C37.9823 34.1465 38.0686 33.9112 38.0686 33.6074H39.0398ZM48.3562 43.0795H47.1585V40.1147H43.9405V43.0795H42.7361V36.1359H43.9405V39.1457H47.1585V36.1359H48.3562V43.0795ZM56.4741 36.1359V42.1106H59.0381V36.1359H60.236V42.1106H62.7935V36.1359H63.9978V43.0795H55.2697V36.1359H56.4741ZM68.866 40.1211H67.992V43.0795H66.7876V36.1359H67.992V39.0751H68.7754L71.1322 36.1359H72.5825L69.8113 39.4729L72.8156 43.0795H71.2941L68.866 40.1211ZM74.1814 39.5435C74.1814 38.8633 74.3147 38.2515 74.5829 37.7082C74.8547 37.1648 75.2297 36.7456 75.7093 36.4504C76.1925 36.1552 76.7428 36.0076 77.3602 36.0076C78.3142 36.0076 79.0848 36.3349 79.6719 36.9894C80.2627 37.644 80.5589 38.5146 80.5589 39.6013V39.6848C80.5589 40.3607 80.427 40.9682 80.164 41.5073C79.9047 42.0421 79.5312 42.4592 79.0435 42.7586C78.5602 43.0582 78.0033 43.2079 77.3734 43.2079C76.4238 43.2079 75.6533 42.8806 75.0617 42.2261C74.4746 41.5715 74.1814 40.7051 74.1814 39.627V39.5435ZM75.3851 39.6848C75.3851 40.4548 75.5649 41.0731 75.9229 41.5394C76.2853 42.0057 76.7686 42.2388 77.3734 42.2388C77.9819 42.2388 78.4652 42.0036 78.8232 41.5329C79.182 41.058 79.361 40.3949 79.361 39.5435C79.361 38.7821 79.1776 38.1659 78.8107 37.6954C78.4483 37.2205 77.9643 36.983 77.3602 36.983C76.7686 36.983 76.292 37.2162 75.9295 37.6825C75.5663 38.1489 75.3851 38.8162 75.3851 39.6848ZM88.4959 36.1359V43.0795H87.2914V37.1178H84.909L84.7668 39.7168C84.6887 40.9105 84.4861 41.764 84.1576 42.2774C83.8342 42.7908 83.3185 43.0582 82.6105 43.0795H82.1317V42.0335L82.4743 42.0078C82.8632 41.965 83.1417 41.7426 83.3097 41.3405C83.4784 40.9383 83.5859 40.1939 83.6338 39.1072L83.7627 36.1359H88.4959ZM95.5401 43.0795C95.4709 42.9426 95.4149 42.6988 95.3714 42.3479C94.8145 42.9213 94.15 43.2079 93.3772 43.2079C92.6869 43.2079 92.1189 43.0154 91.6747 42.6304C91.2342 42.241 91.0139 41.749 91.0139 41.1543C91.0139 40.4313 91.2902 39.8709 91.8427 39.4729C92.3996 39.0708 93.1805 38.8697 94.1868 38.8697H95.3523V38.3242C95.3523 37.9092 95.227 37.5798 94.9766 37.336C94.7261 37.0878 94.357 36.9637 93.8693 36.9637C93.442 36.9637 93.084 37.0707 92.7945 37.2846C92.505 37.4985 92.3606 37.7573 92.3606 38.0612H91.1561C91.1561 37.7146 91.2791 37.3809 91.5252 37.0601C91.7757 36.7348 92.1123 36.4782 92.5352 36.2899C92.9632 36.1017 93.431 36.0076 93.9408 36.0076C94.7474 36.0076 95.3803 36.2086 95.8377 36.6108C96.2952 37.0086 96.5324 37.5585 96.5501 38.2601V41.456C96.5501 42.0934 96.6319 42.6004 96.7962 42.9769V43.0795H95.5401ZM93.5518 42.1747C93.9275 42.1747 94.2841 42.0784 94.6207 41.8859C94.9574 41.6934 95.2012 41.4431 95.3523 41.1351V39.7104H94.413C92.9455 39.7104 92.2118 40.1361 92.2118 40.9875C92.2118 41.3597 92.337 41.6506 92.5875 41.8603C92.838 42.0699 93.1591 42.1747 93.5518 42.1747ZM107.841 36.1359H109.038V43.0795H107.841V38.0162L104.609 43.0795H103.412V36.1359H104.609V41.2057L107.841 36.1359ZM117.481 43.0795H116.283V40.1147H113.064V43.0795H111.861V36.1359H113.064V39.1457H116.283V36.1359H117.481V43.0795ZM119.888 39.5435C119.888 38.8633 120.022 38.2515 120.29 37.7082C120.562 37.1648 120.937 36.7456 121.416 36.4504C121.9 36.1552 122.451 36.0076 123.067 36.0076C124.021 36.0076 124.792 36.3349 125.379 36.9894C125.97 37.644 126.266 38.5146 126.266 39.6013V39.6848C126.266 40.3607 126.135 40.9682 125.871 41.5073C125.612 42.0421 125.239 42.4592 124.751 42.7586C124.267 43.0582 123.711 43.2079 123.08 43.2079C122.131 43.2079 121.36 42.8806 120.769 42.2261C120.182 41.5715 119.888 40.7051 119.888 39.627V39.5435ZM121.093 39.6848C121.093 40.4548 121.272 41.0731 121.63 41.5394C121.992 42.0057 122.476 42.2388 123.08 42.2388C123.689 42.2388 124.172 42.0036 124.531 41.5329C124.889 41.058 125.068 40.3949 125.068 39.5435C125.068 38.7821 124.885 38.1659 124.518 37.6954C124.155 37.2205 123.672 36.983 123.067 36.983C122.476 36.983 121.999 37.2162 121.637 37.6825C121.274 38.1489 121.093 38.8162 121.093 39.6848ZM131.374 42.2388C131.801 42.2388 132.175 42.1106 132.494 41.8538C132.814 41.5971 132.99 41.2763 133.025 40.8912H134.158C134.137 41.2891 133.998 41.6677 133.744 42.0271C133.489 42.3865 133.148 42.6731 132.721 42.887C132.298 43.1009 131.848 43.2079 131.374 43.2079C130.42 43.2079 129.66 42.8934 129.095 42.2645C128.533 41.6314 128.253 40.7671 128.253 39.6719V39.4729C128.253 38.797 128.378 38.1959 128.628 37.6697C128.879 37.1434 129.237 36.7348 129.703 36.4439C130.174 36.153 130.729 36.0076 131.367 36.0076C132.153 36.0076 132.805 36.2407 133.323 36.7071C133.845 37.1734 134.123 37.7787 134.158 38.5232H133.025C132.99 38.0739 132.818 37.706 132.507 37.4194C132.201 37.1285 131.82 36.983 131.367 36.983C130.759 36.983 130.286 37.2012 129.949 37.6376C129.617 38.0697 129.451 38.6965 129.451 39.5179V39.7425C129.451 40.5425 129.617 41.1586 129.949 41.5907C130.282 42.0228 130.757 42.2388 131.374 42.2388ZM141.506 37.0985H139.156V43.0795H137.958V37.0985H135.653V36.1359H141.506V37.0985ZM149.385 39.6848C149.385 40.7415 149.141 41.5929 148.654 42.2388C148.166 42.8849 147.505 43.2079 146.672 43.2079C145.822 43.2079 145.153 42.9405 144.665 42.4057V45.7492H143.467V36.1359H144.561L144.62 36.906C145.107 36.307 145.785 36.0076 146.653 36.0076C147.494 36.0076 148.159 36.322 148.647 36.9509C149.139 37.5798 149.385 38.4547 149.385 39.5757V39.6848ZM148.187 39.55C148.187 38.7671 148.019 38.1489 147.682 37.6954C147.345 37.2419 146.883 37.0151 146.296 37.0151C145.571 37.0151 145.028 37.3339 144.665 37.9713V41.2891C145.023 41.9222 145.571 42.2388 146.31 42.2388C146.883 42.2388 147.339 42.0142 147.676 41.5651C148.017 41.1116 148.187 40.4399 148.187 39.55ZM156.034 43.0795C155.965 42.9426 155.909 42.6988 155.866 42.3479C155.309 42.9213 154.644 43.2079 153.872 43.2079C153.181 43.2079 152.613 43.0154 152.168 42.6304C151.728 42.241 151.508 41.749 151.508 41.1543C151.508 40.4313 151.785 39.8709 152.337 39.4729C152.893 39.0708 153.675 38.8697 154.681 38.8697H155.846V38.3242C155.846 37.9092 155.721 37.5798 155.471 37.336C155.221 37.0878 154.851 36.9637 154.364 36.9637C153.937 36.9637 153.578 37.0707 153.289 37.2846C152.999 37.4985 152.855 37.7573 152.855 38.0612H151.651C151.651 37.7146 151.774 37.3809 152.02 37.0601C152.27 36.7348 152.607 36.4782 153.03 36.2899C153.457 36.1017 153.925 36.0076 154.435 36.0076C155.242 36.0076 155.874 36.2086 156.331 36.6108C156.79 37.0086 157.027 37.5585 157.044 38.2601V41.456C157.044 42.0934 157.126 42.6004 157.29 42.9769V43.0795H156.034ZM154.046 42.1747C154.422 42.1747 154.778 42.0784 155.114 41.8859C155.451 41.6934 155.695 41.4431 155.846 41.1351V39.7104H154.907C153.44 39.7104 152.706 40.1361 152.706 40.9875C152.706 41.3597 152.831 41.6506 153.081 41.8603C153.332 42.0699 153.654 42.1747 154.046 42.1747ZM165.441 43.0795H164.243V40.1147H161.025V43.0795H159.821V36.1359H161.025V39.1457H164.243V36.1359H165.441V43.0795ZM173.89 43.0795H172.692V40.1147H169.474V43.0795H168.269V36.1359H169.474V39.1457H172.692V36.1359H173.89V43.0795ZM177.923 38.5296H179.743C180.537 38.5382 181.164 38.7435 181.626 39.1457C182.088 39.5478 182.32 40.0933 182.32 40.7821C182.32 41.4752 182.082 42.0314 181.607 42.4507C181.132 42.8699 180.493 43.0795 179.69 43.0795H176.725V36.1359H177.923V38.5296ZM184.818 43.0795H183.614V36.1359H184.818V43.0795ZM177.923 39.4986V42.1106H179.704C180.152 42.1106 180.5 41.9972 180.746 41.7704C180.992 41.5394 181.115 41.2249 181.115 40.827C181.115 40.442 180.994 40.1275 180.753 39.8836C180.515 39.6355 180.18 39.5072 179.749 39.4986H177.923ZM190.056 38.6708L191.61 36.1359H193.008L190.716 39.5692L193.08 43.0795H191.694L190.075 40.4805L188.457 43.0795H187.065L189.428 39.5692L187.136 36.1359H188.521L190.056 38.6708ZM204.519 36.1359V43.0795H203.314V40.3778H201.508L199.857 43.0795H198.562L200.323 40.1981C199.874 40.0356 199.529 39.7853 199.288 39.4473C199.05 39.105 198.931 38.7071 198.931 38.2536C198.931 37.6204 199.171 37.1114 199.65 36.7263C200.129 36.337 200.77 36.1402 201.573 36.1359H204.519ZM200.136 38.2665C200.136 38.6045 200.252 38.8783 200.486 39.0879C200.718 39.2933 201.027 39.3981 201.411 39.4024H203.314V37.0985H201.592C201.148 37.0985 200.793 37.2076 200.53 37.4258C200.267 37.6397 200.136 37.92 200.136 38.2665ZM211.09 38.0355C211.09 37.7103 210.965 37.4536 210.714 37.2654C210.464 37.0728 210.121 36.9766 209.685 36.9766C209.262 36.9766 208.908 37.0857 208.623 37.3039C208.342 37.5221 208.202 37.7787 208.202 38.0739H207.011C207.011 37.4708 207.266 36.9766 207.775 36.5916C208.284 36.2065 208.921 36.014 209.685 36.014C210.505 36.014 211.144 36.1894 211.601 36.5402C212.059 36.8868 212.288 37.383 212.288 38.029C212.288 38.3413 212.193 38.628 212.003 38.889C211.813 39.15 211.543 39.3574 211.194 39.5115C212.01 39.7853 212.418 40.3244 212.418 41.1286C212.418 41.7661 212.169 42.271 211.673 42.6431C211.176 43.0154 210.514 43.2015 209.685 43.2015C208.878 43.2015 208.211 43.0068 207.684 42.6175C207.162 42.2239 206.901 41.6934 206.901 41.026H208.093C208.093 41.364 208.244 41.6549 208.546 41.8987C208.852 42.1383 209.231 42.2581 209.685 42.2581C210.143 42.2581 210.512 42.1533 210.792 41.9436C211.073 41.734 211.213 41.4624 211.213 41.1286C211.213 40.7393 211.095 40.4613 210.857 40.2944C210.624 40.1233 210.259 40.0377 209.763 40.0377H208.565V39.0366H209.866C210.682 39.0152 211.09 38.6815 211.09 38.0355ZM216.075 38.5296H217.894C218.688 38.5382 219.317 38.7435 219.779 39.1457C220.241 39.5478 220.471 40.0933 220.471 40.7821C220.471 41.4752 220.234 42.0314 219.759 42.4507C219.284 42.8699 218.646 43.0795 217.843 43.0795H214.877V36.1359H216.075V38.5296ZM222.971 43.0795H221.766V36.1359H222.971V43.0795ZM216.075 39.4986V42.1106H217.855C218.304 42.1106 218.652 41.9972 218.898 41.7704C219.144 41.5394 219.267 41.2249 219.267 40.827C219.267 40.442 219.146 40.1275 218.904 39.8836C218.667 39.6355 218.332 39.5072 217.901 39.4986H216.075ZM228.04 40.1211H227.165V43.0795H225.961V36.1359H227.165V39.0751H227.949L230.306 36.1359H231.756L228.985 39.4729L231.989 43.0795H230.468L228.04 40.1211ZM233.354 39.5435C233.354 38.8633 233.488 38.2515 233.756 37.7082C234.028 37.1648 234.403 36.7456 234.883 36.4504C235.366 36.1552 235.916 36.0076 236.534 36.0076C237.488 36.0076 238.258 36.3349 238.846 36.9894C239.436 37.644 239.732 38.5146 239.732 39.6013V39.6848C239.732 40.3607 239.601 40.9682 239.337 41.5073C239.078 42.0421 238.705 42.4592 238.217 42.7586C237.734 43.0582 237.177 43.2079 236.546 43.2079C235.597 43.2079 234.826 42.8806 234.235 42.2261C233.648 41.5715 233.354 40.7051 233.354 39.627V39.5435ZM234.559 39.6848C234.559 40.4548 234.738 41.0731 235.097 41.5394C235.459 42.0057 235.942 42.2388 236.546 42.2388C237.156 42.2388 237.639 42.0036 237.997 41.5329C238.355 41.058 238.535 40.3949 238.535 39.5435C238.535 38.7821 238.351 38.1659 237.984 37.6954C237.621 37.2205 237.138 36.983 236.534 36.983C235.942 36.983 235.466 37.2162 235.102 37.6825C234.74 38.1489 234.559 38.8162 234.559 39.6848ZM242.14 43.0795V36.1359H244.872C245.805 36.1359 246.519 36.2985 247.015 36.6236C247.516 36.9445 247.767 37.4172 247.767 38.0419C247.767 38.3627 247.67 38.6537 247.475 38.9147C247.281 39.1714 246.994 39.3682 246.614 39.5051C247.037 39.6035 247.376 39.796 247.63 40.0826C247.89 40.3693 248.019 40.7115 248.019 41.1094C248.019 41.7469 247.782 42.2346 247.307 42.5726C246.836 42.9106 246.17 43.0795 245.306 43.0795H242.14ZM243.338 40.0313V42.1233H245.32C245.82 42.1233 246.193 42.0314 246.439 41.8474C246.69 41.6634 246.815 41.4046 246.815 41.0709C246.815 40.3778 246.302 40.0313 245.274 40.0313H243.338ZM243.338 39.0815H244.886C246.008 39.0815 246.569 38.7564 246.569 38.1061C246.569 37.4558 246.038 37.1199 244.976 37.0985H243.338V39.0815Z" fill="white" fill-opacity="0.6"/>
<path d="M26.3477 4.77358C24.5288 2.58504 21.2432 2.83548 18.7142 3.07013C14.7381 3.4379 10.7333 3.53717 6.78381 4.17342C1.31426 5.05561 -0.00223939 8.44895 -2.77373e-05 13.6518C0.00218392 16.6955 0.807574 20.0077 3.61094 21.5531C3.94947 21.7404 4.30127 21.9051 4.66192 22.0563C4.63979 22.9339 4.31234 24.2223 2.8144 25.1608C2.8144 25.1608 6.65769 25.5895 7.60466 22.9024C11.3196 23.5792 15.5324 23.1506 18.9641 22.9994C23.4713 22.7985 27.9474 21.2892 28.8346 16.2127C29.5382 12.1988 28.35 7.18323 26.3477 4.77358Z" fill="white"/>
<path d="M26.4782 4.93564C26.9252 5.85167 27.2615 6.82185 27.4053 7.8394C27.5955 9.21342 27.5712 10.6642 27.465 12.045C27.288 14.3261 26.6862 16.6093 24.7922 18.0263C23.0398 19.3371 20.8449 19.7861 18.7562 20.2125C16.9286 20.5848 15.0258 20.7879 13.1605 20.7721C11.3196 20.7563 9.38142 20.542 7.71091 19.7004C6.10456 18.8904 4.89649 17.5051 4.43405 15.7204C3.97383 13.938 3.80788 12.0269 3.93622 10.1904C4.06234 8.41024 4.44954 6.52854 5.48725 5.05297C5.67753 4.77996 5.88552 4.53178 6.10899 4.30615C1.20808 5.3553 -0.00221398 8.67646 0.00220933 13.656C0.0044238 16.6996 0.809807 20.0117 3.61318 21.5573C3.9517 21.7445 4.3035 21.9093 4.66416 22.0604C4.64203 22.9381 4.31457 24.2264 2.81664 25.165C2.81664 25.165 6.65993 25.5937 7.60689 22.9065C11.3218 23.5834 15.5347 23.1547 18.9664 23.0035C23.4735 22.8027 27.9496 21.2933 28.8368 16.2168C29.5227 12.2864 28.401 7.4062 26.4782 4.93564Z" fill="white"/>
<path d="M15.8511 10.3913C15.8511 10.741 15.5723 11.0253 15.2294 11.0253H6.76392C6.42097 11.0253 6.14218 10.741 6.14218 10.3913C6.14218 10.0416 6.42097 9.75732 6.76392 9.75732H15.2294C15.5745 9.75732 15.8511 10.0416 15.8511 10.3913Z" fill="#371D28"/>
<path d="M22.8981 10.3913C22.8981 10.7411 22.6194 11.0253 22.2764 11.0253H17.6897C17.3468 11.0253 17.068 10.7411 17.068 10.3913C17.068 10.0416 17.3468 9.75732 17.6897 9.75732H22.2742C22.6194 9.75732 22.8981 10.0416 22.8981 10.3913Z" fill="#371D28"/>
<path d="M12.8021 13.4167C12.8021 13.7665 12.5233 14.0507 12.1804 14.0507H6.76389C6.42094 14.0507 6.14215 13.7665 6.14215 13.4167C6.14215 13.067 6.42094 12.7827 6.76389 12.7827H12.1804C12.5233 12.7827 12.8021 13.0648 12.8021 13.4167Z" fill="#371D28"/>
<path d="M22.8981 13.4167C22.8981 13.7665 22.6194 14.0507 22.2765 14.0507H14.4792C14.1363 14.0507 13.8575 13.7665 13.8575 13.4167C13.8575 13.067 14.1363 12.7827 14.4792 12.7827H22.2742C22.6194 12.7827 22.8981 13.0648 22.8981 13.4167Z" fill="#371D28"/>
<path d="M15.8511 16.2619C15.8511 16.6139 15.5723 16.8982 15.2294 16.8982H11.3064C10.9635 16.8982 10.6847 16.6139 10.6847 16.2619C10.6847 15.9122 10.9635 15.6279 11.3064 15.6279H15.2294C15.5745 15.6279 15.8511 15.9122 15.8511 16.2619Z" fill="#371D28"/>
<path d="M10.1978 16.2619C10.1978 16.6139 9.91897 16.8982 9.57604 16.8982H6.76383C6.42088 16.8982 6.14209 16.6139 6.14209 16.2619C6.14209 15.9122 6.42088 15.6279 6.76383 15.6279H9.57383C9.91897 15.6279 10.1978 15.9122 10.1978 16.2619Z" fill="#371D28"/>
<path d="M22.8981 16.2619C22.8981 16.6139 22.6194 16.8982 22.2764 16.8982H17.6897C17.3468 16.8982 17.068 16.6139 17.068 16.2619C17.068 15.9122 17.3468 15.6279 17.6897 15.6279H22.2742C22.6194 15.6279 22.8981 15.9122 22.8981 16.2619Z" fill="#371D28"/>
<path d="M38.3906 12.2886L21.039 13.6368C19.8625 13.6368 18.9099 14.5888 18.9099 15.7606L20.2615 24.2422C20.2615 25.4158 21.2158 26.366 22.3905 26.366L23.2093 26.4166C23.2093 26.4166 23.6949 28.2456 22.7425 29.1957C22.7425 29.1957 25.583 28.5104 26.0404 26.5894L37.0391 27.2635C38.2155 27.2635 39.168 26.3115 39.168 25.1398L40.5195 14.4123C40.5195 13.2406 39.5671 12.2886 38.3906 12.2886Z" fill="white"/>
<path d="M40.48 14.0086C40.4555 14.5851 40.4084 15.1615 40.3445 15.738C40.2108 16.9247 40.032 18.1115 39.8212 19.2869C39.631 20.346 39.4071 21.4407 38.9214 22.4096C38.1082 24.0395 36.352 24.6423 34.6447 24.8976C32.8602 25.1643 31.0663 25.0741 29.2724 25.183C28.2841 25.245 27.2922 25.3164 26.3002 25.2731C25.4493 25.2356 24.4874 25.1624 23.7326 24.7249C22.2756 23.8761 22.0423 21.7674 21.8427 20.269C21.6168 18.5622 21.182 16.3314 22.3679 14.8668C22.9175 14.1889 23.6253 13.8866 24.4291 13.603C24.6945 13.5092 25.0314 13.419 25.3665 13.2988L21.039 13.6368C19.8625 13.6368 18.9099 14.5889 18.9099 15.7606L20.2615 24.2423C20.2615 25.4159 21.2158 26.366 22.3905 26.366L23.2093 26.4167C23.2093 26.4167 23.6949 28.2456 22.7425 29.1958C22.7425 29.1958 25.583 28.5104 26.0404 26.5895L37.0391 27.2636C38.2155 27.2636 39.168 26.3116 39.168 25.1398L40.5195 14.4123C40.5195 14.2753 40.5063 14.14 40.48 14.0086Z" fill="white"/>
<path d="M36.2954 17.9385C36.2954 18.1789 36.0997 18.3742 35.8587 18.3742H23.5726C23.3316 18.3742 23.1359 18.1789 23.1359 17.9385C23.1359 17.6982 23.3316 17.5029 23.5726 17.5029H35.8587C36.0997 17.5029 36.2954 17.6982 36.2954 17.9385Z" fill="#371D28"/>
<path d="M36.2954 19.777C36.2954 20.0173 36.0997 20.2126 35.8587 20.2126H23.5726C23.3316 20.2126 23.1359 20.0173 23.1359 19.777C23.1359 19.5366 23.3316 19.3413 23.5726 19.3413H35.8587C36.0997 19.3413 36.2954 19.5366 36.2954 19.777Z" fill="#371D28"/>
<path d="M36.2954 21.6153C36.2954 21.8557 36.0997 22.051 35.8587 22.051H23.5726C23.3316 22.051 23.1359 21.8557 23.1359 21.6153C23.1359 21.375 23.3316 21.1797 23.5726 21.1797H35.8587C36.0997 21.1797 36.2954 21.375 36.2954 21.6153Z" fill="#371D28"/>
</g>
<defs>
<clipPath id="clip0">
<rect width="249" height="46" fill="white"/>
</clipPath>
</defs>
</svg>
