<svg width="201" height="36" viewBox="0 0 201 36" fill="none" xmlns="http://www.w3.org/2000/svg">
<path d="M52.9778 18.3388H49.1532V10.446H48.934L47.4967 18.3388H43.5746L42.2104 10.446H41.9668V18.3388H38.1909L38.7025 3.21084H44.1836L45.5478 11.396H45.7427L47.0582 3.21084H52.4663L52.9778 18.3388Z" fill="#343434"/>
<path d="M65.4653 6.67005L62.4446 18.6798C62.1362 19.8817 61.6817 20.718 61.0804 21.189C60.4797 21.6762 59.4972 21.9198 58.133 21.9198H55.6969L55.3315 18.7773H56.6957C57.2478 18.7773 57.5239 18.558 57.5239 18.1195C57.5239 18.0221 57.4914 17.811 57.4265 17.4862L54.625 6.67005H58.9612L60.0573 13.9539H60.2765L61.4702 6.67005H65.4653Z" fill="#343434"/>
<path d="M80.8196 18.3388H73.1216V3.21084H77.2873V14.9527H81.0638L80.8196 18.3388Z" fill="#343434"/>
<path d="M91.1317 9.71512L91.0098 14.7578C91.0098 15.0663 91.0829 15.2775 91.2291 15.3912C91.3913 15.4886 91.6593 15.5373 92.033 15.5373L91.6676 18.485C90.7258 18.5499 90.2059 18.5824 90.1085 18.5824C88.9065 18.5824 88.1436 18.1683 87.8186 17.34H87.6968C87.0961 18.1683 86.1704 18.5824 84.9197 18.5824C83.9613 18.5824 83.2228 18.2738 82.7029 17.6567C82.1996 17.0395 81.9477 16.1951 81.9477 15.1232C81.9477 13.7752 82.3618 12.8414 83.1901 12.3217C84.0344 11.802 85.3582 11.4609 87.1609 11.2986V10.7139C87.1609 10.2592 86.9333 10.0318 86.4788 10.0318C85.6992 10.0318 84.4812 10.2673 82.8247 10.7383L82.2157 7.18162C84.2946 6.64568 86.0242 6.37772 87.4045 6.37772C88.7847 6.37772 89.7514 6.64568 90.3034 7.18162C90.8554 7.71755 91.1317 8.56203 91.1317 9.71512ZM86.4301 15.7322C87.0308 15.7322 87.3314 15.4155 87.3314 14.7821V13.5885C86.7307 13.6697 86.2999 13.7996 86.0403 13.9782C85.7967 14.1406 85.6749 14.4249 85.6749 14.8309C85.6749 15.4317 85.9268 15.7322 86.4301 15.7322Z" fill="#343434"/>
<path d="M97.7462 7.52267C98.6398 6.75935 99.622 6.37772 100.694 6.37772C101.766 6.37772 102.513 6.62946 102.935 7.1329C103.374 7.62011 103.593 8.35907 103.593 9.34971V18.3388H99.4514V10.7383C99.4514 10.3323 99.2732 10.1293 98.9155 10.1293C98.461 10.1293 98.0795 10.2429 97.7706 10.4703V18.3388H93.678V6.67004H97.4052L97.6488 7.52267H97.7462Z" fill="#343434"/>
<path d="M109.313 19.4107H111.822C112.114 19.4107 112.26 19.2807 112.26 19.0209V18.9234C112.26 18.6798 112.114 18.558 111.822 18.558H109.313C109.053 18.558 108.923 18.688 108.923 18.9478V19.0452C108.923 19.2889 109.053 19.4107 109.313 19.4107ZM110.287 6.37772H116.036V9.10611H114.282V9.22791C114.802 9.68262 115.062 10.2754 115.062 11.0062C115.062 13.6047 113.592 14.9039 110.652 14.9039H109.483C109.191 14.9039 109.045 15.042 109.045 15.3181C109.045 15.5779 109.182 15.7078 109.459 15.7078H112.772C114.639 15.7078 115.573 16.5199 115.573 18.1439C115.573 19.4756 115.126 20.4338 114.233 21.0185C113.34 21.6193 112.106 21.9198 110.531 21.9198C108.955 21.9198 107.762 21.7493 106.95 21.4082C106.154 21.0834 105.756 20.4663 105.756 19.5568C105.756 19.0534 106.073 18.6311 106.706 18.2901V18.1926C105.91 17.7541 105.512 17.1208 105.512 16.2925C105.512 15.3181 106.137 14.5791 107.388 14.0757C106.803 13.6534 106.365 13.1662 106.073 12.614C105.796 12.0456 105.658 11.2986 105.658 10.3729C105.658 9.08989 106.073 8.10732 106.901 7.42522C107.745 6.7269 108.874 6.37772 110.287 6.37772ZM111.359 11.055C111.359 10.5352 111.294 10.1618 111.164 9.93437C111.05 9.69076 110.831 9.56896 110.506 9.56896C110.181 9.56896 109.954 9.69076 109.824 9.93437C109.711 10.1618 109.654 10.519 109.654 11.0062C109.654 11.9969 109.946 12.4922 110.531 12.4922C111.083 12.4922 111.359 12.0132 111.359 11.055Z" fill="#343434"/>
<path d="M120.377 18.5824C118.445 18.5824 117.478 17.5105 117.478 15.3668V6.67005H121.62V14.368C121.62 14.774 121.799 14.977 122.156 14.977C122.61 14.977 122.992 14.8634 123.301 14.636V6.67005H127.393V18.2901H123.52V17.4375H123.422C122.529 18.2008 121.514 18.5824 120.377 18.5824Z" fill="#343434"/>
<path d="M138.375 9.71512L138.254 14.7578C138.254 15.0663 138.327 15.2775 138.473 15.3912C138.635 15.4886 138.903 15.5373 139.277 15.5373L138.911 18.485C137.969 18.5499 137.45 18.5824 137.352 18.5824C136.15 18.5824 135.387 18.1683 135.062 17.34H134.94C134.339 18.1683 133.413 18.5824 132.163 18.5824C131.205 18.5824 130.466 18.2738 129.947 17.6567C129.443 17.0395 129.191 16.1951 129.191 15.1232C129.191 13.7752 129.605 12.8414 130.434 12.3217C131.278 11.802 132.602 11.4609 134.405 11.2986V10.7139C134.405 10.2592 134.177 10.0318 133.722 10.0318C132.943 10.0318 131.725 10.2673 130.068 10.7383L129.459 7.18162C131.538 6.64568 133.267 6.37772 134.648 6.37772C136.028 6.37772 136.994 6.64568 137.547 7.18162C138.099 7.71755 138.375 8.56203 138.375 9.71512ZM133.674 15.7322C134.274 15.7322 134.575 15.4155 134.575 14.7821V13.5885C133.974 13.6697 133.544 13.7996 133.284 13.9782C133.04 14.1406 132.919 14.4249 132.919 14.8309C132.919 15.4317 133.17 15.7322 133.674 15.7322Z" fill="#343434"/>
<path d="M144.454 19.4107H146.963C147.255 19.4107 147.401 19.2807 147.401 19.0209V18.9234C147.401 18.6798 147.255 18.558 146.963 18.558H144.454C144.194 18.558 144.064 18.688 144.064 18.9478V19.0452C144.064 19.2889 144.194 19.4107 144.454 19.4107ZM145.428 6.37772H151.177V9.10611H149.423V9.22791C149.943 9.68262 150.203 10.2754 150.203 11.0062C150.203 13.6047 148.734 14.9039 145.794 14.9039H144.624C144.332 14.9039 144.186 15.042 144.186 15.3181C144.186 15.5779 144.324 15.7078 144.6 15.7078H147.913C149.781 15.7078 150.714 16.5199 150.714 18.1439C150.714 19.4756 150.268 20.4338 149.375 21.0185C148.482 21.6193 147.248 21.9198 145.672 21.9198C144.097 21.9198 142.903 21.7493 142.091 21.4082C141.295 21.0834 140.897 20.4663 140.897 19.5568C140.897 19.0534 141.214 18.6311 141.847 18.2901V18.1926C141.052 17.7541 140.654 17.1208 140.654 16.2925C140.654 15.3181 141.279 14.5791 142.529 14.0757C141.945 13.6534 141.506 13.1662 141.214 12.614C140.938 12.0456 140.8 11.2986 140.8 10.3729C140.8 9.08989 141.214 8.10732 142.042 7.42522C142.887 6.7269 144.015 6.37772 145.428 6.37772ZM146.5 11.055C146.5 10.5352 146.435 10.1618 146.305 9.93437C146.192 9.69076 145.972 9.56896 145.647 9.56896C145.323 9.56896 145.095 9.69076 144.965 9.93437C144.852 10.1618 144.795 10.519 144.795 11.0062C144.795 11.9969 145.087 12.4922 145.672 12.4922C146.224 12.4922 146.5 12.0132 146.5 11.055Z" fill="#343434"/>
<path d="M157.491 9.86129C157.07 9.86129 156.793 10.0075 156.663 10.2998C156.534 10.5759 156.468 11.0062 156.468 11.5909H158.588V11.0062C158.588 10.2429 158.222 9.86129 157.491 9.86129ZM157.589 6.37772C159.262 6.37772 160.456 6.78371 161.17 7.59575C161.901 8.39151 162.266 9.53646 162.266 11.0306C162.266 11.2255 162.21 12.1025 162.096 13.6615H156.541C156.541 14.8796 157.102 15.4886 158.222 15.4886C158.758 15.4886 159.806 15.3019 161.365 14.9283L161.706 17.949C160.342 18.3713 158.977 18.5824 157.613 18.5824C155.941 18.5824 154.658 18.0383 153.764 16.9502C152.871 15.8459 152.424 14.3518 152.424 12.4679C152.424 8.40779 154.146 6.37772 157.589 6.37772Z" fill="#343434"/>
<path d="M180.959 13.9782C180.959 16.8853 179.4 18.3388 176.281 18.3388H170.313V3.21084H176.16C177.703 3.21084 178.848 3.52753 179.594 4.16091C180.342 4.77805 180.715 5.76871 180.715 7.13291C180.715 8.4971 180.155 9.53647 179.034 10.2511V10.3972C180.318 10.9007 180.959 12.0943 180.959 13.9782ZM175.307 15.6348C175.794 15.6348 176.119 15.5292 176.281 15.3181C176.46 15.0907 176.549 14.636 176.549 13.9539C176.549 13.2556 176.46 12.7684 176.281 12.4922C176.103 12.1999 175.778 12.0538 175.307 12.0538H174.527V15.6348H175.307ZM175.331 9.69077C175.705 9.69077 175.965 9.57711 176.111 9.34973C176.257 9.12234 176.33 8.72449 176.33 8.15605C176.33 7.5714 176.249 7.16541 176.087 6.93802C175.94 6.69442 175.681 6.57261 175.307 6.57261H174.527V9.69077H175.331Z" fill="#343434"/>
<path d="M191.559 9.71512L191.437 14.7578C191.437 15.0663 191.51 15.2775 191.656 15.3912C191.818 15.4886 192.086 15.5373 192.46 15.5373L192.095 18.485C191.153 18.5499 190.633 18.5824 190.536 18.5824C189.334 18.5824 188.571 18.1683 188.246 17.34H188.124C187.523 18.1683 186.597 18.5824 185.347 18.5824C184.388 18.5824 183.65 18.2738 183.13 17.6567C182.627 17.0395 182.375 16.1951 182.375 15.1232C182.375 13.7752 182.789 12.8414 183.617 12.3217C184.461 11.802 185.785 11.4609 187.588 11.2986V10.7139C187.588 10.2592 187.36 10.0318 186.906 10.0318C186.126 10.0318 184.908 10.2673 183.252 10.7383L182.643 7.18162C184.722 6.64568 186.451 6.37772 187.832 6.37772C189.212 6.37772 190.178 6.64568 190.73 7.18162C191.282 7.71755 191.559 8.56203 191.559 9.71512ZM186.857 15.7322C187.458 15.7322 187.758 15.4155 187.758 14.7821V13.5885C187.158 13.6697 186.727 13.7996 186.467 13.9782C186.224 14.1406 186.102 14.4249 186.102 14.8309C186.102 15.4317 186.354 15.7322 186.857 15.7322Z" fill="#343434"/>
<path d="M198.15 11.7858V18.3388H194.106V6.67004H197.663L197.906 7.3765H198.004C198.377 6.95423 198.751 6.68626 199.124 6.5726C199.514 6.44268 200.139 6.37772 201 6.37772L200.829 10.2754H199.709C199.076 10.2754 198.653 10.3729 198.442 10.5677C198.247 10.7626 198.15 11.1686 198.15 11.7858Z" fill="#343434"/>
<path d="M0.90274 30.3154C0.90274 29.7619 1.01066 29.2641 1.22651 28.822C1.44584 28.3798 1.74872 28.0386 2.13516 27.7984C2.52508 27.5582 2.96896 27.4381 3.4668 27.4381C4.2362 27.4381 4.85763 27.7044 5.3311 28.2371C5.80805 28.7697 6.04653 29.4782 6.04653 30.3624V30.4304C6.04653 30.9804 5.94035 31.4748 5.72799 31.9134C5.5191 32.3486 5.21796 32.6881 4.82456 32.9317C4.43464 33.1754 3.98553 33.2973 3.47725 33.2973C2.71134 33.2973 2.0899 33.0309 1.61295 32.4983C1.13948 31.9657 0.90274 31.2606 0.90274 30.3834V30.3154ZM1.87406 30.4304C1.87406 31.057 2.01853 31.5601 2.30749 31.9395C2.59993 32.319 2.98985 32.5087 3.47725 32.5087C3.96813 32.5087 4.35804 32.3173 4.647 31.9343C4.93596 31.5479 5.08044 31.0082 5.08044 30.3154C5.08044 29.6958 4.93248 29.1944 4.63656 28.8115C4.34412 28.4251 3.9542 28.2318 3.4668 28.2318C2.98985 28.2318 2.60515 28.4216 2.31271 28.801C2.02027 29.1805 1.87406 29.7236 1.87406 30.4304Z" fill="#949494"/>
<path d="M12.5158 33.1928H11.5497V30.7802H8.95437V33.1928H7.98303V27.5425H8.95437V29.9917H11.5497V27.5425H12.5158V33.1928Z" fill="#949494"/>
<path d="M19.3454 27.5425V33.1928H18.3741V28.3415H16.4524L16.3375 30.4564C16.2748 31.4278 16.1112 32.1223 15.8466 32.5401C15.5855 32.9579 15.1694 33.1754 14.5985 33.1928H14.2121V32.3416L14.4888 32.3207C14.8022 32.2859 15.0267 32.1049 15.1625 31.7777C15.2983 31.4504 15.3853 30.8447 15.4236 29.9604L15.5281 27.5425H19.3454Z" fill="#949494"/>
<path d="M25.027 33.1929C24.9714 33.0814 24.9261 32.883 24.8913 32.5975C24.4421 33.064 23.906 33.2973 23.2829 33.2973C22.7258 33.2973 22.268 33.1406 21.9094 32.8273C21.5543 32.5105 21.3768 32.1101 21.3768 31.6262C21.3768 31.0378 21.5996 30.5818 22.0452 30.258C22.4943 29.9308 23.1245 29.7672 23.9356 29.7672H24.8756V29.3233C24.8756 28.9855 24.7746 28.7175 24.5727 28.5191C24.3708 28.3171 24.0731 28.2162 23.6797 28.2162C23.3351 28.2162 23.0461 28.3032 22.8128 28.4773C22.5796 28.6513 22.463 28.8619 22.463 29.1092H21.4917C21.4917 28.8271 21.5909 28.5556 21.7893 28.2945C21.9912 28.0299 22.2628 27.821 22.604 27.6679C22.9487 27.5147 23.3264 27.4381 23.7372 27.4381C24.3882 27.4381 24.8982 27.6017 25.2673 27.9289C25.6363 28.2527 25.8278 28.7001 25.8417 29.271V31.8717C25.8417 32.3904 25.9078 32.803 26.0401 33.1093V33.1929H25.027ZM23.4239 32.4565C23.7267 32.4565 24.0139 32.3782 24.2855 32.2215C24.5571 32.0649 24.7538 31.8612 24.8756 31.6105V30.4512H24.1184C22.9347 30.4512 22.3428 30.7977 22.3428 31.4905C22.3428 31.7933 22.4439 32.0301 22.6458 32.2007C22.8476 32.3712 23.1071 32.4565 23.4239 32.4565Z" fill="#949494"/>
<path d="M31.6527 27.5425H32.6188V33.1929H31.6527V29.0726L29.0469 33.1929H28.0808V27.5425H29.0469V31.668L31.6527 27.5425ZM31.9138 25.485C31.9138 25.9062 31.7694 26.2457 31.4804 26.5033C31.1949 26.7574 30.8189 26.8845 30.3524 26.8845C29.8859 26.8845 29.5082 26.7557 29.2192 26.4981C28.9302 26.2404 28.7858 25.9028 28.7858 25.485H29.5743C29.5743 25.7287 29.6405 25.9202 29.7727 26.0594C29.9051 26.1952 30.0983 26.2631 30.3524 26.2631C30.5961 26.2631 30.7858 26.1952 30.9216 26.0594C31.0609 25.9236 31.1305 25.7322 31.1305 25.485H31.9138Z" fill="#949494"/>
<path d="M39.4279 33.1928H38.4619V30.7802H35.8664V33.1928H34.8951V27.5425H35.8664V29.9917H38.4619V27.5425H39.4279V33.1928Z" fill="#949494"/>
<path d="M45.9755 27.5425V32.4043H48.0435V27.5425H49.0096V32.4043H51.0723V27.5425H52.0436V33.1928H45.0042V27.5425H45.9755Z" fill="#949494"/>
<path d="M55.9704 30.7854H55.2655V33.1928H54.2941V27.5425H55.2655V29.9342H55.8974L57.7982 27.5425H58.9679L56.7329 30.258L59.1559 33.1928H57.9287L55.9704 30.7854Z" fill="#949494"/>
<path d="M60.2572 30.3154C60.2572 29.7619 60.3647 29.2641 60.581 28.822C60.8002 28.3798 61.1027 28.0386 61.4895 27.7984C61.8792 27.5582 62.3231 27.4381 62.821 27.4381C63.5904 27.4381 64.2119 27.7044 64.6855 28.2371C65.162 28.7697 65.4008 29.4782 65.4008 30.3624V30.4304C65.4008 30.9804 65.2945 31.4748 65.0824 31.9134C64.8732 32.3486 64.572 32.6881 64.1786 32.9317C63.7889 33.1754 63.3397 33.2973 62.8317 33.2973C62.0658 33.2973 61.4443 33.0309 60.9672 32.4983C60.4936 31.9657 60.2572 31.2606 60.2572 30.3834V30.3154ZM61.228 30.4304C61.228 31.057 61.373 31.5601 61.6618 31.9395C61.9541 32.319 62.3439 32.5087 62.8317 32.5087C63.3225 32.5087 63.7122 32.3173 64.001 31.9343C64.2903 31.5479 64.4347 31.0082 64.4347 30.3154C64.4347 29.6958 64.2868 29.1944 63.9909 28.8115C63.6986 28.4251 63.3082 28.2318 62.821 28.2318C62.3439 28.2318 61.9594 28.4216 61.6671 28.801C61.3742 29.1805 61.228 29.7236 61.228 30.4304Z" fill="#949494"/>
<path d="M71.8023 27.5425V33.1928H70.8309V28.3415H68.9093L68.7947 30.4564C68.7317 31.4278 68.5683 32.1223 68.3033 32.5401C68.0425 32.9579 67.6265 33.1754 67.0555 33.1928H66.6693V32.3416L66.9456 32.3207C67.2593 32.2859 67.4839 32.1049 67.6194 31.7777C67.7555 31.4504 67.8422 30.8447 67.8808 29.9604L67.9848 27.5425H71.8023Z" fill="#949494"/>
<path d="M77.483 33.1929C77.4272 33.0814 77.382 32.883 77.347 32.5975C76.8978 33.064 76.3618 33.2973 75.7386 33.2973C75.1818 33.2973 74.7237 33.1406 74.3655 32.8273C74.0101 32.5105 73.8325 32.1101 73.8325 31.6262C73.8325 31.0378 74.0553 30.5818 74.5009 30.258C74.9501 29.9308 75.5799 29.7672 76.3915 29.7672H77.3315V29.3233C77.3315 28.9855 77.2305 28.7175 77.0285 28.5191C76.8265 28.3171 76.5288 28.2162 76.1355 28.2162C75.7908 28.2162 75.5021 28.3032 75.2686 28.4773C75.0351 28.6513 74.9186 28.8619 74.9186 29.1092H73.9472C73.9472 28.8271 74.0464 28.5556 74.2448 28.2945C74.4469 28.0299 74.7184 27.821 75.0594 27.6679C75.4046 27.5147 75.7819 27.4381 76.1931 27.4381C76.8437 27.4381 77.3541 27.6017 77.7231 27.9289C78.092 28.2527 78.2834 28.7001 78.2976 29.271V31.8717C78.2976 32.3904 78.3636 32.803 78.4961 33.1093V33.1929H77.483ZM75.8794 32.4565C76.1824 32.4565 76.47 32.3782 76.7415 32.2215C77.013 32.0649 77.2097 31.8612 77.3315 31.6105V30.4512H76.574C75.3904 30.4512 74.7986 30.7977 74.7986 31.4905C74.7986 31.7933 74.8996 32.0301 75.1016 32.2007C75.3036 32.3712 75.5627 32.4565 75.8794 32.4565Z" fill="#949494"/>
<path d="M87.4044 27.5425H88.3705V33.1928H87.4044V29.0726L84.7984 33.1928H83.8323V27.5425H84.7984V31.668L87.4044 27.5425Z" fill="#949494"/>
<path d="M95.1795 33.1928H94.2134V30.7802H91.6175V33.1928H90.6466V27.5425H91.6175V29.9917H94.2134V27.5425H95.1795V33.1928Z" fill="#949494"/>
<path d="M97.121 30.3154C97.121 29.7619 97.2292 29.2641 97.4448 28.822C97.6641 28.3798 97.9671 28.0386 98.3533 27.7984C98.7437 27.5582 99.1875 27.4381 99.6848 27.4381C100.454 27.4381 101.076 27.7044 101.549 28.2371C102.026 28.7697 102.265 29.4782 102.265 30.3624V30.4304C102.265 30.9804 102.159 31.4748 101.946 31.9134C101.738 32.3486 101.436 32.6881 101.043 32.9317C100.653 33.1754 100.204 33.2973 99.6955 33.2973C98.9297 33.2973 98.3082 33.0309 97.8311 32.4983C97.3575 31.9657 97.121 31.2606 97.121 30.3834V30.3154ZM98.0925 30.4304C98.0925 31.057 98.2369 31.5601 98.5256 31.9395C98.818 32.319 99.2083 32.5087 99.6955 32.5087C100.186 32.5087 100.576 32.3173 100.865 31.9343C101.154 31.5479 101.299 31.0082 101.299 30.3154C101.299 29.6958 101.151 29.1944 100.855 28.8115C100.562 28.4251 100.173 28.2318 99.6848 28.2318C99.2083 28.2318 98.8233 28.4216 98.531 28.801C98.2387 29.1805 98.0925 29.7236 98.0925 30.4304Z" fill="#949494"/>
<path d="M106.385 32.5087C106.729 32.5087 107.031 32.4043 107.288 32.1954C107.546 31.9865 107.688 31.7254 107.716 31.4121H108.63C108.613 31.7359 108.501 32.044 108.296 32.3364C108.091 32.6289 107.815 32.8621 107.471 33.0362C107.13 33.2103 106.767 33.2973 106.385 33.2973C105.615 33.2973 105.003 33.0414 104.546 32.5296C104.094 32.0144 103.867 31.3111 103.867 30.4199V30.258C103.867 29.708 103.968 29.2188 104.17 28.7906C104.372 28.3624 104.661 28.0299 105.037 27.7932C105.417 27.5565 105.864 27.4381 106.379 27.4381C107.013 27.4381 107.539 27.6278 107.956 28.0073C108.378 28.3867 108.602 28.8794 108.63 29.4852H107.716C107.688 29.1196 107.549 28.8202 107.299 28.5869C107.051 28.3502 106.745 28.2318 106.379 28.2318C105.889 28.2318 105.507 28.4094 105.236 28.7645C104.968 29.1161 104.833 29.6262 104.833 30.2946V30.4774C104.833 31.1284 104.968 31.6297 105.236 31.9813C105.504 32.3329 105.887 32.5087 106.385 32.5087Z" fill="#949494"/>
<path d="M114.557 28.3258H112.661V33.1928H111.695V28.3258H109.836V27.5425H114.557V28.3258Z" fill="#949494"/>
<path d="M120.911 30.4304C120.911 31.2903 120.715 31.9831 120.321 32.5087C119.928 33.0344 119.395 33.2973 118.723 33.2973C118.037 33.2973 117.498 33.0797 117.105 32.6445V35.3652H116.138V27.5425H117.021L117.068 28.1692C117.461 27.6818 118.008 27.4381 118.708 27.4381C119.386 27.4381 119.923 27.6939 120.316 28.2057C120.713 28.7175 120.911 29.4294 120.911 30.3416V30.4304ZM119.945 30.3207C119.945 29.6836 119.809 29.1805 119.538 28.8115C119.266 28.4425 118.894 28.2579 118.42 28.2579C117.835 28.2579 117.397 28.5173 117.105 29.036V31.7359C117.393 32.2511 117.835 32.5087 118.431 32.5087C118.894 32.5087 119.261 32.326 119.533 31.9604C119.807 31.5914 119.945 31.0448 119.945 30.3207Z" fill="#949494"/>
<path d="M126.273 33.1929C126.218 33.0814 126.172 32.883 126.138 32.5975C125.689 33.064 125.152 33.2973 124.53 33.2973C123.972 33.2973 123.515 33.1406 123.156 32.8273C122.801 32.5105 122.623 32.1101 122.623 31.6262C122.623 31.0378 122.846 30.5818 123.292 30.258C123.74 29.9308 124.371 29.7672 125.182 29.7672H126.122V29.3233C126.122 28.9855 126.021 28.7175 125.819 28.5191C125.617 28.3171 125.32 28.2162 124.926 28.2162C124.582 28.2162 124.292 28.3032 124.06 28.4773C123.826 28.6513 123.71 28.8619 123.71 29.1092H122.738C122.738 28.8271 122.837 28.5556 123.036 28.2945C123.238 28.0299 123.509 27.821 123.85 27.6679C124.195 27.5147 124.573 27.4381 124.983 27.4381C125.635 27.4381 126.144 27.6017 126.513 27.9289C126.883 28.2527 127.074 28.7001 127.088 29.271V31.8717C127.088 32.3904 127.155 32.803 127.286 33.1093V33.1929H126.273ZM124.67 32.4565C124.973 32.4565 125.26 32.3782 125.532 32.2215C125.803 32.0649 126 31.8612 126.122 31.6105V30.4512H125.365C124.181 30.4512 123.59 30.7977 123.59 31.4905C123.59 31.7933 123.691 32.0301 123.892 32.2007C124.094 32.3712 124.354 32.4565 124.67 32.4565Z" fill="#949494"/>
<path d="M133.861 33.1928H132.895V30.7802H130.299V33.1928H129.328V27.5425H130.299V29.9917H132.895V27.5425H133.861V33.1928Z" fill="#949494"/>
<path d="M140.675 33.1928H139.709V30.7802H137.113V33.1928H136.142V27.5425H137.113V29.9917H139.709V27.5425H140.675V33.1928Z" fill="#949494"/>
<path d="M143.929 29.4904H145.396C146.037 29.4973 146.543 29.6644 146.915 29.9917C147.288 30.3189 147.474 30.7628 147.474 31.3233C147.474 31.8873 147.283 32.3399 146.9 32.6811C146.517 33.0223 146.002 33.1928 145.354 33.1928H142.962V27.5425H143.929V29.4904ZM149.49 33.1928H148.518V27.5425H149.49V33.1928ZM143.929 30.2789V32.4043H145.365C145.726 32.4043 146.007 32.3121 146.205 32.1275C146.404 31.9395 146.503 31.6837 146.503 31.3599C146.503 31.0466 146.406 30.7906 146.211 30.5922C146.019 30.3903 145.749 30.2858 145.401 30.2789H143.929Z" fill="#949494"/>
<path d="M153.713 29.6052L154.967 27.5425H156.095L154.246 30.3363L156.152 33.1928H155.035L153.729 31.0779L152.424 33.1928H151.301L153.207 30.3363L151.359 27.5425H152.476L153.713 29.6052Z" fill="#949494"/>
<path d="M165.378 27.5425V33.1928H164.407V30.9943H162.95L161.619 33.1928H160.574L161.995 30.8481C161.632 30.7158 161.354 30.5122 161.159 30.2371C160.967 29.9586 160.872 29.6348 160.872 29.2658C160.872 28.7505 161.065 28.3363 161.452 28.0229C161.838 27.7061 162.355 27.546 163.002 27.5425H165.378ZM161.843 29.2762C161.843 29.5513 161.937 29.7741 162.125 29.9447C162.313 30.1118 162.562 30.1971 162.872 30.2006H164.407V28.3258H163.018C162.659 28.3258 162.374 28.4146 162.162 28.5921C161.949 28.7662 161.843 28.9943 161.843 29.2762Z" fill="#949494"/>
<path d="M170.678 29.0883C170.678 28.8237 170.577 28.6148 170.375 28.4616C170.173 28.3049 169.897 28.2266 169.545 28.2266C169.204 28.2266 168.918 28.3154 168.688 28.4929C168.462 28.6705 168.349 28.8794 168.349 29.1196H167.388C167.388 28.6287 167.594 28.2266 168.004 27.9133C168.415 27.5999 168.929 27.4433 169.545 27.4433C170.206 27.4433 170.721 27.586 171.09 27.8715C171.459 28.1535 171.644 28.5573 171.644 29.083C171.644 29.3372 171.568 29.5704 171.414 29.7828C171.261 29.9952 171.043 30.164 170.762 30.2894C171.42 30.5122 171.749 30.9508 171.749 31.6053C171.749 32.1241 171.549 32.5349 171.148 32.8377C170.748 33.1406 170.213 33.2921 169.545 33.2921C168.894 33.2921 168.356 33.1337 167.931 32.8169C167.51 32.4966 167.299 32.0649 167.299 31.5218H168.26C168.26 31.7968 168.382 32.0335 168.626 32.232C168.873 32.4269 169.179 32.5244 169.545 32.5244C169.914 32.5244 170.212 32.4391 170.438 32.2685C170.664 32.0979 170.777 31.8769 170.777 31.6053C170.777 31.2885 170.682 31.0622 170.49 30.9264C170.302 30.7872 170.008 30.7176 169.607 30.7176H168.641V29.9029H169.691C170.349 29.8855 170.678 29.614 170.678 29.0883Z" fill="#949494"/>
<path d="M174.699 29.4904H176.166C176.807 29.4973 177.314 29.6644 177.686 29.9917C178.059 30.3189 178.245 30.7628 178.245 31.3233C178.245 31.8873 178.054 32.3399 177.67 32.6811C177.288 33.0223 176.773 33.1928 176.125 33.1928H173.733V27.5425H174.699V29.4904ZM180.261 33.1928H179.289V27.5425H180.261V33.1928ZM174.699 30.2789V32.4043H176.135C176.497 32.4043 176.778 32.3121 176.976 32.1275C177.175 31.9395 177.273 31.6837 177.273 31.3599C177.273 31.0466 177.176 30.7906 176.981 30.5922C176.79 30.3903 176.52 30.2858 176.172 30.2789H174.699Z" fill="#949494"/>
<path d="M184.349 30.7854H183.644V33.1928H182.672V27.5425H183.644V29.9342H184.276L186.177 27.5425H187.347L185.111 30.258L187.534 33.1928H186.307L184.349 30.7854Z" fill="#949494"/>
<path d="M188.635 30.3154C188.635 29.7619 188.743 29.2641 188.959 28.822C189.178 28.3798 189.481 28.0386 189.868 27.7984C190.258 27.5582 190.701 27.4381 191.199 27.4381C191.969 27.4381 192.59 27.7044 193.064 28.2371C193.54 28.7697 193.779 29.4782 193.779 30.3624V30.4304C193.779 30.9804 193.673 31.4748 193.46 31.9134C193.252 32.3486 192.95 32.6881 192.557 32.9317C192.167 33.1754 191.718 33.2973 191.209 33.2973C190.444 33.2973 189.822 33.0309 189.346 32.4983C188.872 31.9657 188.635 31.2606 188.635 30.3834V30.3154ZM189.606 30.4304C189.606 31.057 189.751 31.5601 190.04 31.9395C190.332 32.319 190.722 32.5087 191.209 32.5087C191.701 32.5087 192.091 32.3173 192.379 31.9343C192.668 31.5479 192.813 31.0082 192.813 30.3154C192.813 29.6958 192.665 29.1944 192.369 28.8115C192.076 28.4251 191.687 28.2318 191.199 28.2318C190.722 28.2318 190.338 28.4216 190.045 28.801C189.753 29.1805 189.606 29.7236 189.606 30.4304Z" fill="#949494"/>
<path d="M195.721 33.1928V27.5425H197.925C198.677 27.5425 199.253 27.6748 199.653 27.9394C200.057 28.2005 200.259 28.5852 200.259 29.0935C200.259 29.3546 200.181 29.5913 200.024 29.8037C199.868 30.0126 199.636 30.1727 199.329 30.2841C199.671 30.3642 199.944 30.5208 200.149 30.7541C200.359 30.9874 200.463 31.2659 200.463 31.5897C200.463 32.1084 200.271 32.5053 199.889 32.7803C199.509 33.0554 198.971 33.1928 198.275 33.1928H195.721ZM196.687 30.7123V32.4147H198.285C198.689 32.4147 198.99 32.3399 199.189 32.1902C199.391 32.0405 199.492 31.8299 199.492 31.5583C199.492 30.9943 199.077 30.7123 198.249 30.7123H196.687ZM196.687 29.9394H197.936C198.84 29.9394 199.293 29.6749 199.293 29.1457C199.293 28.6165 198.865 28.3432 198.009 28.3258H196.687V29.9394Z" fill="#949494"/>
<path d="M21.6775 2.02195C20.2106 0.241035 17.5606 0.44483 15.5209 0.635773C12.3141 0.935039 9.08402 1.01582 5.89864 1.53357C1.48726 2.25144 0.425464 5.01277 0.427248 9.24658C0.429033 11.7233 1.07861 14.4186 3.33961 15.6762C3.61265 15.8286 3.89639 15.9626 4.18727 16.0856C4.16942 16.7998 3.90531 17.8482 2.69718 18.6119C2.69718 18.6119 5.79692 18.9608 6.56068 16.7741C9.55692 17.3249 12.9547 16.9761 15.7225 16.8531C19.3576 16.6896 22.9677 15.4614 23.6833 11.3304C24.2508 8.06419 23.2925 3.98278 21.6775 2.02195Z" fill="#733A7E"/>
<path d="M21.7831 2.15366C22.1436 2.89907 22.4148 3.68854 22.5308 4.51657C22.6843 5.63469 22.6647 6.81521 22.579 7.93889C22.4362 9.79505 21.9509 11.6531 20.4233 12.8061C19.0099 13.8728 17.2397 14.2381 15.5551 14.5851C14.0811 14.8881 12.5464 15.0533 11.042 15.0405C9.55724 15.0276 7.994 14.8532 6.64668 14.1684C5.35111 13.5093 4.37676 12.382 4.00379 10.9297C3.63261 9.47925 3.49876 7.92415 3.60227 6.42967C3.70399 4.98108 4.01628 3.44986 4.85323 2.24913C5.00669 2.02697 5.17444 1.82501 5.35468 1.64141C1.40194 2.49515 0.425792 5.19773 0.429362 9.24979C0.431146 11.7265 1.08072 14.4217 3.34173 15.6794C3.61476 15.8318 3.8985 15.9658 4.18938 16.0888C4.17153 16.803 3.90742 17.8513 2.6993 18.6151C2.6993 18.6151 5.79903 18.964 6.56279 16.7773C9.55902 17.3281 12.9568 16.9793 15.7246 16.8562C19.3597 16.6929 22.9699 15.4646 23.6854 11.3336C24.2386 8.13532 23.3339 4.16406 21.7831 2.15366Z" fill="#5F397E"/>
<path d="M13.2118 6.59305C13.2118 6.87759 12.9869 7.10896 12.7103 7.10896H5.88268C5.60607 7.10896 5.38123 6.87759 5.38123 6.59305C5.38123 6.30845 5.60607 6.07712 5.88268 6.07712H12.7103C12.9887 6.07712 13.2118 6.30845 13.2118 6.59305Z" fill="white"/>
<path d="M18.8953 6.59305C18.8953 6.87765 18.6705 7.10896 18.3939 7.10896H14.6945C14.4179 7.10896 14.1931 6.87765 14.1931 6.59305C14.1931 6.30847 14.4179 6.07714 14.6945 6.07714H18.3921C18.6705 6.07714 18.8953 6.30847 18.8953 6.59305Z" fill="white"/>
<path d="M10.7527 9.05508C10.7527 9.33968 10.5278 9.57099 10.2512 9.57099H5.88268C5.60608 9.57099 5.38123 9.33968 5.38123 9.05508C5.38123 8.77054 5.60608 8.53917 5.88268 8.53917H10.2512C10.5278 8.53917 10.7527 8.76869 10.7527 9.05508Z" fill="white"/>
<path d="M18.8956 9.05508C18.8956 9.33968 18.6707 9.57099 18.3941 9.57099H12.1054C11.8288 9.57099 11.6039 9.33968 11.6039 9.05508C11.6039 8.77054 11.8288 8.53917 12.1054 8.53917H18.3924C18.6707 8.53917 18.8956 8.76869 18.8956 9.05508Z" fill="white"/>
<path d="M13.2123 11.3703C13.2123 11.6567 12.9874 11.888 12.7109 11.888H9.54682C9.27024 11.888 9.04541 11.6567 9.04541 11.3703C9.04541 11.0857 9.27024 10.8544 9.54682 10.8544H12.7109C12.9892 10.8544 13.2123 11.0857 13.2123 11.3703Z" fill="white"/>
<path d="M8.65229 11.3703C8.65229 11.6567 8.4274 11.888 8.15082 11.888H5.88268C5.60608 11.888 5.38123 11.6567 5.38123 11.3703C5.38123 11.0857 5.60608 10.8544 5.88268 10.8544H8.14904C8.4274 10.8544 8.65229 11.0857 8.65229 11.3703Z" fill="white"/>
<path d="M18.8953 11.3703C18.8953 11.6567 18.6705 11.888 18.3939 11.888H14.6945C14.4179 11.888 14.1931 11.6567 14.1931 11.3703C14.1931 11.0857 14.4179 10.8544 14.6945 10.8544H18.3921C18.6705 10.8544 18.8953 11.0857 18.8953 11.3703Z" fill="white"/>
<path d="M31.3905 8.13698L17.3958 9.2341C16.4469 9.2341 15.6787 10.0088 15.6787 10.9623L16.7688 17.8642C16.7688 18.8192 17.5385 19.5924 18.4859 19.5924L19.1463 19.6336C19.1463 19.6336 19.5379 21.1219 18.7697 21.895C18.7697 21.895 21.0607 21.3374 21.4296 19.7742L30.3004 20.3228C31.2493 20.3228 32.0175 19.548 32.0175 18.5946L33.1075 9.86516C33.1075 8.91171 32.3393 8.13698 31.3905 8.13698Z" fill="#8AD0F0"/>
<path d="M33.0756 9.53665C33.0559 10.0057 33.0179 10.4748 32.9664 10.9439C32.8585 11.9096 32.7143 12.8753 32.5443 13.8318C32.3909 14.6936 32.2103 15.5844 31.8186 16.3729C31.1627 17.6992 29.7462 18.1897 28.3693 18.3975C26.93 18.6145 25.4832 18.5411 24.0363 18.6298C23.2393 18.6802 22.4392 18.7383 21.6391 18.7031C20.9529 18.6725 20.1771 18.6129 19.5683 18.2569C18.3932 17.5663 18.205 15.8503 18.044 14.631C17.8619 13.2421 17.5111 11.4268 18.4676 10.235C18.9109 9.68334 19.4818 9.43736 20.13 9.20659C20.3441 9.13024 20.6159 9.05686 20.8861 8.95906L17.3958 9.2341C16.4469 9.2341 15.6787 10.0088 15.6787 10.9623L16.7688 17.8642C16.7688 18.8192 17.5385 19.5924 18.4859 19.5924L19.1463 19.6337C19.1463 19.6337 19.5379 21.1219 18.7697 21.8951C18.7697 21.8951 21.0607 21.3374 21.4296 19.7742L30.3004 20.3228C31.2493 20.3228 32.0175 19.5481 32.0175 18.5946L33.1075 9.86516C33.1075 9.75363 33.0969 9.64359 33.0756 9.53665Z" fill="#87B4DD"/>
<path d="M29.7005 12.7347C29.7005 12.9303 29.5426 13.0893 29.3483 13.0893H19.4391C19.2448 13.0893 19.0869 12.9303 19.0869 12.7347C19.0869 12.5392 19.2448 12.3802 19.4391 12.3802H29.3483C29.5426 12.3802 29.7005 12.5392 29.7005 12.7347Z" fill="white"/>
<path d="M29.7005 14.2306C29.7005 14.4262 29.5426 14.5851 29.3483 14.5851H19.4391C19.2448 14.5851 19.0869 14.4262 19.0869 14.2306C19.0869 14.035 19.2448 13.8761 19.4391 13.8761H29.3483C29.5426 13.8761 29.7005 14.035 29.7005 14.2306Z" fill="white"/>
<path d="M29.7005 15.7265C29.7005 15.9221 29.5426 16.081 29.3483 16.081H19.4391C19.2448 16.081 19.0869 15.9221 19.0869 15.7265C19.0869 15.531 19.2448 15.372 19.4391 15.372H29.3483C29.5426 15.372 29.7005 15.531 29.7005 15.7265Z" fill="white"/>
</svg>
