<svg xmlns="http://www.w3.org/2000/svg" width="23" height="34" viewBox="0 0 217 300">
  <metadata><?xpacket begin="﻿" id="W5M0MpCehiHzreSzNTczkc9d"?>
<x:xmpmeta xmlns:x="adobe:ns:meta/" x:xmptk="Adobe XMP Core 5.6-c138 79.159824, 2016/09/14-01:09:01        ">
   <rdf:RDF xmlns:rdf="http://www.w3.org/1999/02/22-rdf-syntax-ns#">
      <rdf:Description rdf:about=""/>
   </rdf:RDF>
</x:xmpmeta>
                                                                                                    
                                                                                                    
                                                                                                    
                                                                                                    
                                                                                                    
                                                                                                    
                                                                                                    
                                                                                                    
                                                                                                    
                                                                                                    
                                                                                                    
                                                                                                    
                                                                                                    
                                                                                                    
                                                                                                    
                                                                                                    
                                                                                                    
                                                                                                    
                                                                                                    
                                                                                                    
                           
<?xpacket end="w"?></metadata>
<defs>
    <style>
      .cls-1 {
        fill: #fff;
        fill-rule: evenodd;
      }
    </style>
  </defs>
  <path id="финал_2" data-name="финал 2" class="cls-1" d="M114.962,1.792a58.164,58.164,0,0,1,25.51,8.643c12.393,7.607,9.954,3.251,25.509,16.5,16.645,14.176,24.009,24.422,27.471,33.392,0,0-23.71-17.429-33.75-23.571-8.643-5.287-8.188-5.139-18.837-12.178C129.655,17.168,114.962,1.792,114.962,1.792Zm-8.241,2.75c6.352,6.181,16.1,15.393,16.1,15.393a18.441,18.441,0,0,1-7.316-1.671c-9.831-4.083-7.827-2.509-15.062-5.864S86.751,7.247,76.9,3.364C84.558-.972,100.369-1.639,106.721,4.542ZM18.42,58.755c1.252-4.468,2.064-7.482,4.71-10.607,7.622-9,24.436-16.309,38.46-14.928,14.1,1.389,54.741,9.966,80.028,27.279s18.7,15.177,34.175,24.577c16.258,9.872,4.831,2.7,29.434,12.571,11.059,4.435,10.2,14.535,10.2,14.535s-7.968-6.9-11.773-7.464-9.564-1.908-9.564-1.908,10.072,6.942,15.057,13.3c7.7,9.826,7.457,12.572,7.457,12.572s-2.223,1.589-18.219-12.095c-2.26-1.934-10.021-6.58-10.021-6.58s6.406,12.707,10.187,17.5a117.443,117.443,0,0,0,11.774,12.964S217,146.446,217,157.752c-9.963-8.228-4.675-3.819-15.305-14.142-6.88-6.683-10.581-5.305-22.5-30.909-4.948-10.632-10.413-19.466-24.518-29.815s-30.542-22.264-43.535-26.109S83.088,52.67,67.678,55.205,44.21,62.623,37.258,68.969,21.953,85.862,21.953,85.862,42,72.2,54.526,68.576s28.492-7.193,42.012-5.836,15.715,2.207,20.324,5.444,4.483,5.064,4.483,5.064a52.666,52.666,0,0,1-9.75-.4c-6.168-.719-23.173-2.7-37.773.529S34.21,86.71,27.446,94.5,15.5,109.979,12.141,122.789c-3.47,13.217-3.925,30.249-3.925,30.249s8.344-19.595,16.174-35.1,21.764-23.521,31.2-27.588a125.684,125.684,0,0,1,41-9.422c16.082-.8,39.04,2.187,48.765,8.326s20.582,19.682,28.933,33.766,6.194,21.465,13.673,26.871c6.335,4.581,18.916,14.925,21.977,19.25a24.755,24.755,0,0,1,4.709,15.321s-16.318-15.664-21.977-18.857c-9.646-5.441-25.923-19.188-41.916-34.057s-22.988-21.668-41.086-21.886-40.384.787-53.978,15.8C30.64,153.141,21.523,192.349,19.6,201.751,15.436,222.072,7.824,232,7.824,232S1.753,198.014.367,169.538C-0.8,145.551.55,118.077,8.609,96.861S18.58,72.145,35.3,57.577,80.82,46.184,80.82,46.184A49.6,49.6,0,0,0,55.7,41.077C44.459,41.75,34.088,45.7,18.42,58.755Zm151.032,78.668s0.708-1.391-.418-4.23c-2.862-7.221-10.359-20.711-21.608-28.71-15.671-11.142-27.17-14.909-44.717-13.414s-51.721,8.59-63.3,23.87a159.793,159.793,0,0,0-24.245,45.338c-8.328,24.14-3.81,43.045-3.81,43.045S12.6,187.37,23.13,162.859,36.2,132.5,45.928,121.267s27.349-18.8,49.9-20.447,32.493,0.787,42.67,7.5,27.287,26.155,27.287,26.155ZM13.174,246.574s0.066-1.248.795-6.348,11.666-26.781,16.34-38.952,11.344-30.1,20.17-49.981S81.868,120.86,103.6,119.837s39.215,17.1,50.04,28.63S178.969,171,183.773,175.038s11.127,8.355,20.276,14.927c8.561,6.152,8.241,10.607,8.241,10.607s-14.285-3.771-36.214-18.32c-10.679-7.086-19.654-17.141-36.653-34.591-15.756-16.174-21.637-18.089-38.633-16.393s-35.018,7.992-43.381,28.891-8.2,26.341-15.723,42.352-19.029,33.781-22.027,38.968C16.158,247.537,13.174,246.574,13.174,246.574Zm195.192-32.252s-3.967-3.39-16.553-8.53c-15.393-6.286-30.984-23.729-47.464-39.529s-17.977-26.042-38.659-25.7-31.432,9.583-39.735,25.5-4.239,25.117-17.317,53.764c-12.927,28.319-18.343,28.45-21.584,32.213s-7.258,6.543-5.887,8.25c1.312,1.634,7.7-1.992,12.559-5.107s6.442-5.017,11.729-12.06c13.135-17.5,14.531-24.227,19.365-47.44s17.665-42.475,39.283-42,23.594,11.959,37.85,26.972,27.066,28.327,46.637,34.032C205.913,219.737,208.366,214.322,208.366,214.322Zm-4.317,15.321s0.38-.042-5.314-2.17-19.319-5.971-30.792-12.365-21.041-16.882-34.922-32.736S114.944,161.933,101.691,163s-16.255,8.9-17.4,22.895,0.247,25.009,9.861,40.589,17.634,20.665,22.813,24.052c3.117,2.038,8.536,2.092,8.536,2.092s1.072-1.62-1.233-5.074-11.3-9.326-21.186-23.21S91.559,200.99,93.632,186.29s10.726-15.047,20.692-8.1,20.692,22.585,35.027,33.749,24.9,17.184,39,20.844C199.775,235.752,204.049,229.643,204.049,229.643Zm-9.811,12.571c-3.737-1.656-5.967-1.359-9.812-3.142s-25.6-6.643-40.744-20.768-16.031-20.169-28.1-27-18.338-4.911-16.638,5.546,4.859,21.684,13.892,29.578,17.9,18.713,30.114,20.224,12.592-.035,12.592-0.035,1.347-1.8-6.92-5.481a78.9,78.9,0,0,1-28.9-21.074c-10.541-11.981-10.147-18.473-8.178-19.439s3.387,2.065,10.177,8.011,15.221,17.307,25.653,22.775,25.417,10.075,30.38,11.2A38.836,38.836,0,0,0,194.238,242.214ZM36.473,264.606s19.191-14.123,24.81-25.763,7.992-27.035,9.645-37.259,4.437-11.013,4.437-11.013,0.875-2.276,1.635,3.8-2.616,15.6,7.4,32.133,13.7,32.143,35.436,35.441,20.719,0,36.8-3.935c9.752-2.383,20.219-4.274,25.436-5.979,5.3-1.732,13.327-3.093,12.67-3.565,0,0-2.816,10.347-26.014,14.565a49.874,49.874,0,0,0-16.375,6.015,23.331,23.331,0,0,0,15.59,2.235c10.668-2.369,9.027-1.571,9.027-1.571s-2.468,5.15-10.989,7.463c-5.068,1.377-16.147,1.071-24.979-.056-9.271-1.184-7.491-.138-26.827-6.695s-12.68-8.415-35.783-14.285C65.253,252.8,44.753,264.682,40.4,266.178,38.159,266.947,36.473,264.606,36.473,264.606Zm39.406-35.535s2.719,7.336,4.9,10.14,7.339,10.134,7.339,10.134A37.815,37.815,0,0,0,77.952,244.3a24.556,24.556,0,0,0-10.563-.817,40.316,40.316,0,0,0,4.856-6.36A34.975,34.975,0,0,0,75.879,229.071ZM156.5,287.227s-7.195.182-11.711,0.165a86.849,86.849,0,0,1-20.418-2.186c-9.885-2.159-22.377-7.56-30.494-10.916a83.833,83.833,0,0,0-25.616-6.148c-9.7-.883-31.282,4.423-30.611,8.25s12.606-.278,21.977,0a62.383,62.383,0,0,1,22.082,4.279c6.738,2.481,30.5,11.761,30.5,11.761a222.356,222.356,0,0,1-28.441-2.882c-12.3-2.078-29.65.506-29.65,0.506a21.341,21.341,0,0,0,5.291,3.793c3.129,1.553,5.22,3.668,19.917,5.021s30.713,1.7,41.43-.115,12.373-3.264,23.251-3.9C151.566,294.414,156.5,287.227,156.5,287.227ZM42.752,24.184a35.6,35.6,0,0,1,32.573-11C87.174,15.131,117,25.762,124.381,28.9,136,33.834,145.323,39.84,155.8,48.341c17.133,13.9,28.7,17.472,38.044,21.414A20.15,20.15,0,0,1,205.618,84.29s-8.723-6.468-17.6-7.939c-7.567-1.253-15-5.057-28.516-13.213s-13.138-12.085-47.193-27.1S42.752,24.184,42.752,24.184Z"/>
</svg>
